<?xml version="1.0" encoding="UTF-8" standalone="yes"?>
<!-- Created with sK1/UniConvertor (http://sk1project.org/) -->
<svg xmlns="http://www.w3.org/2000/svg" xmlns:xlink="http://www.w3.org/1999/xlink"
  width="98pt" height="128pt" viewBox="0 0 98 128"
  fill-rule="evenodd">
<g>
<g>
<path style="stroke:none; fill:#000000" d="M 74.5 30C 72.8 31.9 71.5 32 53.2 32C 35.9 32 33.9 32.2 35 33.5C 35.9 34.6 37.3 34.9 39.4 34.4C 42.2 33.9 42.7 34.2 44.2 37.2C 45 39.1 48.1 43.6 50.9 47.2L 56 53.9L 51.2 57.5C 48.6 59.5 42 63.4 36.5 66.2C 28.3 70.3 27.2 71.1 30.5 70.5C 35.8 69.6 47.1 64.8 54.2 60.5L 59.9 56.9L 67.8 60.9C 72.1 63.1 78 65.6 80.8 66.5L 86 68.2L 88.5 65.6C 89.8 64.2 91.6 63 92.5 63C 93.3 63 94 62.5 94 62C 94 61.4 92.5 61 90.7 61C 84.9 61 75.7 58.9 69.7 56.3L 63.9 53.7L 66.8 50.6C 68.4 48.9 71.8 44.8 74.5 41.5C 77.1 38.2 80.1 35.2 81.3 34.7C 82.4 34.3 83.1 33.9 82.9 33.7C 82.7 33.6 81.1 32.3 79.4 30.7C 76.3 28 76.3 28 74.5 30zM 70.1 38.2C 68.5 40.6 65.7 44.3 63.8 46.4C 60.9 49.8 60.1 50.1 58.4 49.2C 55.9 47.9 45 36.3 45 34.9C 45 34.4 50.9 34 59 34L 73.1 34L 70.1 38.2z"/>
<path style="stroke:none; fill:#000000" d="M 58 68.6L 58 75L 48.4 75C 40.5 75 39 75.2 39.9 76.3C 40.7 77.3 43.2 77.5 49.5 77.2L 58 76.7L 58 83.4L 58 90L 46.3 90C 37 90 34.9 90.3 35.8 91.2C 36.7 92.1 40.2 92.4 47.5 92.1L 58 91.8L 58 104.4L 58 117.1L 61 115.5L 64 114L 63.3 103L 62.7 92.1L 77.7 91.8L 92.8 91.5L 89.9 88.1L 87 84.6L 84.2 87.3C 81.6 89.8 80.8 90 72.2 90L 63 90L 63 83.5L 63 77L 74.7 77L 86.4 77L 83 73.5L 79.6 70L 77 72.5C 74.8 74.6 73.4 75 68.7 75C 63.1 75 63 75 63 72.1C 63 70.5 63.7 68.7 64.5 68C 66.8 66.1 66.4 65.4 62 63.7L 58 62.2L 58 68.6z"/>
</g>
</g>
</svg>