<?xml version="1.0" encoding="UTF-8" standalone="yes"?>
<!-- Created with sK1/UniConvertor (http://sk1project.org/) -->
<svg xmlns="http://www.w3.org/2000/svg" xmlns:xlink="http://www.w3.org/1999/xlink"
  width="99pt" height="130pt" viewBox="0 0 99 130"
  fill-rule="evenodd">
<g>
<g>
<path style="stroke:none; fill:#000000" d="M 31.8 76.2C 31.5 88.3 31.1 91.3 29.2 95.4C 26.1 102.2 20.9 108.3 13.9 113.3C 10.6 115.6 8.4 117.6 9 117.8C 10.9 118.5 23.5 110.3 27.9 105.5C 34.2 98.7 35.9 93.9 37.1 80.3C 37.7 72.7 38.6 68 39.5 67.1C 40.7 65.8 40.4 65.4 36.9 63.8C 34.6 62.8 32.7 62 32.5 62C 32.3 62 32 68.4 31.8 76.2z"/>
<path style="stroke:none; fill:#000000" d="M 58.8 90.4L 59.1 118.8L 61.8 117.8L 64.5 116.8L 64.2 93.1C 63.9 70.7 64 69.4 65.9 67.9C 67.8 66.4 67.7 66.2 63.4 64.2C 60.9 63 58.8 62 58.7 62C 58.6 62 58.6 74.8 58.8 90.4z"/>
</g>
</g>
</svg>