<?xml version="1.0" encoding="UTF-8" standalone="yes"?>
<!-- Created with sK1/UniConvertor (http://sk1project.org/) -->
<svg xmlns="http://www.w3.org/2000/svg" xmlns:xlink="http://www.w3.org/1999/xlink"
  width="98pt" height="128pt" viewBox="0 0 98 128"
  fill-rule="evenodd">
<g>
<g>
<path style="stroke:none; fill:#000000" d="M 37.6 32.6C 37.2 36.2 36.7 40.4 36.3 42L 35.8 45L 22.2 45C 11.3 45 8.9 45.2 9.9 46.2C 10.8 47.2 14.4 47.4 23.1 47.1C 33.2 46.8 35 47 35 48.3C 35 50.5 29.6 66.6 26.6 73.5C 22.9 81.8 15.6 93.3 9.2 100.8C 6.2 104.3 4 107.4 4.3 107.7C 5.5 108.8 19.1 93.9 24.4 85.8C 31.2 75.4 34.8 67.7 38.5 55.7L 41.2 47L 65.4 47L 89.5 47L 85.3 42.8L 81 38.6L 77.7 41.8L 74.4 45L 58.1 45L 41.8 45L 42.4 40.2C 42.8 37.6 44 34.3 45 32.9L 46.8 30.3L 42.5 28.2L 38.3 26.2L 37.6 32.6z"/>
</g>
</g>
</svg>