<?xml version="1.0" encoding="UTF-8" standalone="yes"?>
<!-- Created with sK1/UniConvertor (http://sk1project.org/) -->
<svg xmlns="http://www.w3.org/2000/svg" xmlns:xlink="http://www.w3.org/1999/xlink"
  width="98pt" height="128pt" viewBox="0 0 98 128"
  fill-rule="evenodd">
<g>
<g>
<path style="stroke:none; fill:#000000" d="M 19.6 29.7C 22.3 33.8 25 39.7 25 41.4C 25 44 27.3 44.4 29.2 42C 32.8 37.6 31.1 33.9 23 29.1C 18.3 26.3 17.4 26.5 19.6 29.7z"/>
<path style="stroke:none; fill:#000000" d="M 55 28.7C 55 31.9 49.8 47.5 46.4 54.4C 40.8 65.8 42.4 65.4 50.6 53.2L 54.1 48L 73.6 48L 93 48L 89 44.3L 84.9 40.7L 82.2 43.3C 79.5 45.9 79 46 67.3 46L 55.1 46L 57.9 39.7C 59.5 36.2 61.7 33 63 32.3C 65.2 31.2 65.2 31.1 61.2 29.1C 56.2 26.6 55 26.5 55 28.7z"/>
<path style="stroke:none; fill:#000000" d="M 37.9 45.6C 35.6 48.1 35.5 48.1 19.9 47.8C 5.5 47.5 4.3 47.6 5.6 49.1C 6.7 50.3 8.3 50.6 12.2 50.2L 17.3 49.7L 16.7 65.1C 15.9 84.3 14.3 91.8 8.3 103.9C 2.3 116 2.2 116.3 6.2 111.8C 14.6 102.6 19.4 91 21.3 75.9L 22.4 66L 28.8 66L 35.2 66L 34.5 78.7C 33.8 93.6 32.5 101.4 30.4 103C 29.4 103.9 27.9 104 24.8 103.2C 19.5 101.8 17.8 102.8 22 104.8C 23.8 105.6 25.7 107.4 26.3 108.7C 27.6 111.6 29.1 111.6 32.7 108.6C 36.8 105.1 38.1 99.8 38.9 82.8C 39.4 71 39.9 67.7 41.2 66.3C 42.8 64.8 42.7 64.6 40.5 62.8C 37.7 60.6 36.6 60.5 35 62.5C 34.2 63.5 31.9 64 27.9 64L 22 64L 22 57L 22 50.1L 34.8 49.8L 47.5 49.5L 43.9 46.3L 40.3 43L 37.9 45.6z"/>
</g>
</g>
</svg>