<?xml version="1.0" encoding="UTF-8" standalone="yes"?>
<!-- Created with sK1/UniConvertor (http://sk1project.org/) -->
<svg xmlns="http://www.w3.org/2000/svg" xmlns:xlink="http://www.w3.org/1999/xlink"
  width="98pt" height="128pt" viewBox="0 0 98 128"
  fill-rule="evenodd">
<g>
<g>
<path style="stroke:none; fill:#000000" d="M 42.7 33.8C 39.5 46.9 40.7 46 25.6 46C 15.4 46 12.9 46.3 13.8 47.2C 14.7 48.1 18.4 48.4 26.6 48.1L 38.1 47.8L 35.5 52.9L 33 58L 18.4 58C 5.8 58 3.9 58.2 4.9 59.4C 5.9 60.6 8.5 60.8 18.6 60.3C 25.4 60 31 60.1 31 60.5C 31 62.4 19.1 75.8 11.9 81.8C 7.6 85.4 4.3 88.6 4.5 88.8C 5.1 89.5 12 85.1 19.5 79.1C 23.4 76.1 28.9 70.6 31.8 66.8L 37.1 60L 48.1 60C 54.1 60 59 60.4 59 60.8C 59 61.2 61.3 64.1 64 67.2C 70.9 75 86.7 84.3 87.8 81.2C 88 80.5 89.6 79.2 91.3 78.3L 94.5 76.6L 88 75.3C 79.4 73.5 70.5 69.2 65 64.2L 60.5 60.1L 77 60L 93.5 60L 90.3 56.8L 87.1 53.6L 84.7 55.8C 82.4 57.9 81.7 58 60.2 58L 38 58L 40.8 53L 43.5 48L 64.9 48L 86.4 48L 83 44.5L 79.6 41L 77 43.5C 74.6 45.8 73.6 46 66.1 46L 57.9 46L 64.1 40.2C 67.5 37.1 70.9 34.3 71.7 33.9C 72.8 33.5 72.3 32.7 69.8 30.8L 66.3 28.1L 64.6 31.7C 63.7 33.6 61.4 37.6 59.5 40.6L 56 46L 50.1 46L 44.1 46L 46.6 39.7C 47.9 36.3 49.9 32.8 50.9 31.9C 52.8 30.4 52.7 30.2 48.7 28.3L 44.5 26.3L 42.7 33.8z"/>
<path style="stroke:none; fill:#000000" d="M 22.8 32.7C 24.4 34.8 26.5 37.9 27.4 39.7C 29.1 43.2 31.5 43.3 32.5 39.9C 33.5 37 31.3 34.2 26 31.5C 23.3 30.1 20.8 29 20.4 29C 20.1 29 21.2 30.7 22.8 32.7z"/>
</g>
</g>
</svg>