<?xml version="1.0" encoding="UTF-8" standalone="yes"?>
<!-- Created with sK1/UniConvertor (http://sk1project.org/) -->
<svg xmlns="http://www.w3.org/2000/svg" xmlns:xlink="http://www.w3.org/1999/xlink"
  width="99pt" height="129pt" viewBox="0 0 99 129"
  fill-rule="evenodd">
<g>
<g>
<path style="stroke:none; fill:#000000" d="M 78.5 31C 76.8 32.9 75.5 33 56.6 33C 41.1 33 36.9 33.3 37.8 34.2C 38.7 35.1 44.3 35.3 58 35.1L 77 34.8L 77 39.4L 77 44L 57.8 44C 42.9 44.1 38.9 44.3 40.5 45.2C 41.8 46 48.2 46.3 59.7 46.1L 77 45.9L 77 50.4L 77 55L 56.8 55C 41.5 55 36.9 55.3 37.8 56.2C 38.6 57 44.6 57.2 58 57.1C 76.9 56.9 77 56.9 77 59C 77 60.6 77.4 61 78.6 60.6C 79.5 60.3 80.6 60 81.1 60C 81.6 60 82 54.6 82 47.9C 82 38 82.3 35.5 83.6 34.6C 84.9 33.6 84.8 33.2 82.7 31.2L 80.3 29L 78.5 31z"/>
<path style="stroke:none; fill:#000000" d="M 32.7 64.9C 32.3 66.5 30.7 69.5 28.9 71.4C 26.3 74.4 26 75.3 27 76.5C 29.6 79.6 33.5 76.9 34.6 71.2L 35.3 68L 59.6 68C 73 68 84 68.2 84 68.4C 84 68.6 83.3 70.4 82.5 72.4C 80.6 76.9 81.7 77 85.9 72.6C 87.7 70.7 90.4 68.9 91.8 68.5L 94.3 67.9L 91.2 64.7L 88.1 61.6L 85.7 63.8C 83.4 65.9 82.7 66 59.2 66C 35.7 66 35 65.9 35 64C 35 61 33.3 61.6 32.7 64.9z"/>
<path style="stroke:none; fill:#000000" d="M 72.5 76C 70.8 77.9 69.5 78 53.2 78C 37.5 78 35.9 78.2 37.1 79.6C 37.9 80.5 39.2 80.9 40.6 80.6C 42.4 80.1 43.3 80.8 45.5 84.8C 47 87.4 50.1 91.7 52.3 94.3L 56.3 99.2L 53.4 101.6C 48.8 105.4 33.7 112.7 27.6 114.1C 24.5 114.8 22 115.7 22 116.2C 22 117.3 23.4 117.2 31.1 115.6C 38.6 114 48.9 109.6 55.3 105.2L 59.6 102.2L 64.6 105.6C 69.4 108.9 83.5 115 86.3 115C 87.1 115 88.4 114.3 89.1 113.4C 89.8 112.5 91.6 111.3 93 110.7C 95.4 109.7 95.3 109.7 91 108.9C 79.4 106.7 76 105.7 69.8 102.8C 66 101.1 63 99.4 63 99C 63 98.6 63.9 97.5 65.1 96.4C 66.2 95.4 68.8 92.3 70.7 89.5C 72.7 86.8 75.6 83.3 77.1 81.9L 80 79.4L 77.2 76.7C 74.3 74 74.3 74 72.5 76zM 68 84.7C 66.4 87.4 63.8 91 62.2 92.9L 59.4 96.3L 55.4 92.8C 53.3 90.8 50 87.1 48.2 84.6L 44.9 80L 57.9 80L 71 80L 68 84.7z"/>
</g>
</g>
</svg>