<?xml version="1.0" encoding="UTF-8" standalone="yes"?>
<!-- Created with sK1/UniConvertor (http://sk1project.org/) -->
<svg xmlns="http://www.w3.org/2000/svg" xmlns:xlink="http://www.w3.org/1999/xlink"
  width="99pt" height="128pt" viewBox="0 0 99 128"
  fill-rule="evenodd">
<g>
<g>
<path style="stroke:none; fill:#000000" d="M 24.6 30.3C 23.5 35.9 15 51.8 11 55.7C 7.3 59.4 7.3 59.6 8.7 62.3C 9.7 64.4 10.6 65 11.8 64.4C 15.6 62.8 28.1 59.7 28.6 60.3C 29.7 61.3 14.6 80.3 11.4 82L 8.3 83.6L 10.7 87.2L 13.1 90.8L 17.3 88.5C 19.6 87.3 25.3 85 30 83.5C 34.7 82.1 39.1 80.6 39.9 80.4C 40.7 80.2 41 79.7 40.8 79.4C 40.5 79.1 35.2 79.9 29 81C 22.9 82.2 17.6 82.9 17.2 82.6C 16.9 82.2 18 80.5 19.7 78.7C 21.3 77 26.8 70 31.8 63.3C 36.9 56.6 41.7 50.7 42.6 50.2C 44.2 49.3 43.7 48.8 38.4 45.7C 37.7 45.3 36 47.5 34.1 51.4L 31 57.7L 22.9 58.4C 18.4 58.8 14.5 58.9 14.3 58.7C 13.8 58.1 28.1 36.2 30.8 33.4L 32.8 31.3L 29 29.1L 25.2 27L 24.6 30.3z"/>
<path style="stroke:none; fill:#000000" d="M 36.5 95.1C 34.9 95.6 28.3 97.1 22 98.5C 15.7 99.9 9.5 101.3 8.3 101.5C 6.1 102 6.1 102.1 7.7 105.4L 9.3 108.8L 11.9 106.9C 13.3 105.9 20.1 103 26.9 100.5C 40 95.7 43.7 94 41 94.1C 40.2 94.1 38.2 94.6 36.5 95.1z"/>
</g>
</g>
</svg>