<?xml version="1.0" encoding="UTF-8" standalone="yes"?>
<!-- Created with sK1/UniConvertor (http://sk1project.org/) -->
<svg xmlns="http://www.w3.org/2000/svg" xmlns:xlink="http://www.w3.org/1999/xlink"
  width="99pt" height="129pt" viewBox="0 0 99 129"
  fill-rule="evenodd">
<g>
<g>
<path style="stroke:none; fill:#000000" d="M 48.5 52.9C 48.5 77.5 47.5 89 45 93.1C 44.3 94.2 42.3 92.7 36 86.5C 31.6 82.1 28 79 28 79.6C 28 81.2 33.6 88.8 38.4 93.8C 41.7 97.3 42.3 98.4 41.4 99.8C 38.4 104.6 21.2 113.6 9.9 116.3C 7.2 117 5 117.8 5 118.2C 5 119.5 7.1 119.2 18.1 116.4C 29.5 113.5 38 109.7 43.4 105L 46.9 101.9L 50.9 104.4C 56.3 107.9 65.8 111.5 75.4 114C 84.7 116.4 86.6 116.5 87.7 114.6C 88.1 113.9 90 112.5 91.8 111.6C 93.7 110.6 95 109.7 94.8 109.5C 94.7 109.4 90 108.7 84.5 108.1C 71.9 106.6 63.2 104.5 55.2 100.9C 49.5 98.3 48.9 97.8 49.6 95.8C 53.1 84.9 53.3 82.7 53.7 58.5C 54.1 37.2 54.4 33.4 55.8 32.4C 57.2 31.4 57.1 31.1 55.2 30.1C 54.1 29.5 52.1 28.6 50.8 28.1L 48.5 27.2L 48.5 52.9z"/>
</g>
</g>
</svg>