<?xml version="1.0" encoding="UTF-8" standalone="yes"?>
<!-- Created with sK1/UniConvertor (http://sk1project.org/) -->
<svg xmlns="http://www.w3.org/2000/svg" xmlns:xlink="http://www.w3.org/1999/xlink"
  width="99pt" height="129pt" viewBox="0 0 99 129"
  fill-rule="evenodd">
<g>
<g>
<path style="stroke:none; fill:#000000" d="M 34 34.1L 34 42L 21.4 42C 11.1 42 9 42.2 9.8 43.3C 10.7 44.3 13.7 44.5 22.5 44.2L 34 43.7L 34 48.9C 34 51.7 34.2 54 34.5 54C 34.7 54 36.1 53.5 37.5 52.8C 39.5 51.9 40 51 40 47.8L 40 44L 49.5 44L 59 44L 59 48.5C 59 53.5 58.9 53.4 62.5 51.8C 64.4 50.9 65 49.9 65 47.3L 65 44L 78 44L 90.9 44L 86.7 40.1L 82.5 36.2L 78.9 39.1C 75.9 41.4 74.2 42 70.1 42L 65 42L 65 37.8C 65 35.5 65.7 32.9 66.6 31.9C 68 30.4 67.9 30.1 65.3 29.2C 63.8 28.7 61.7 27.9 60.8 27.5C 59.2 26.9 59 27.5 59 34.4L 59 42L 49.5 42L 40 42L 40 37.6C 40 34.3 40.5 32.8 42 31.7C 43.8 30.4 43.6 30.2 39 28.3L 34 26.2L 34 34.1z"/>
<path style="stroke:none; fill:#000000" d="M 15.6 57.6C 14.7 60.4 12.8 64.2 11.5 66.1C 9.1 69.3 9 69.5 10.9 70.2C 15.3 71.8 19 68 19 61.9C 19 60.1 20.5 60 50.6 60L 82.2 60L 79.6 64.5C 78.1 67 77.2 69 77.6 69C 78 69 80 67.4 82.1 65.5C 84.2 63.6 87.1 61.8 88.5 61.4C 91.7 60.6 91.7 60 88 56.5L 85 53.6L 82.7 55.8C 80.4 58 79.8 58 49.8 58L 19.2 58L 18.2 55.2C 17.3 52.6 17.3 52.6 15.6 57.6z"/>
</g>
</g>
</svg>