<?xml version="1.0" encoding="UTF-8" standalone="yes"?>
<!-- Created with sK1/UniConvertor (http://sk1project.org/) -->
<svg xmlns="http://www.w3.org/2000/svg" xmlns:xlink="http://www.w3.org/1999/xlink"
  width="98pt" height="129pt" viewBox="0 0 98 129"
  fill-rule="evenodd">
<g>
<g>
<path style="stroke:none; fill:#000000" d="M 47.3 45L 47.9 52L 39.3 52C 32.2 52 30.9 52.2 31.9 53.3C 32.7 54.3 34.9 54.6 40.5 54.2L 48 53.7L 48 60.4L 48 67L 36.8 67C 27.7 67 25.8 67.2 27 68.2C 28.2 69.2 34.1 69.4 52.3 69L 76.1 68.5L 72.7 65.2L 69.4 62L 67 64.5C 65 66.7 63.8 67 58.3 67L 52 67L 52 60.5L 52 54L 61.7 54L 71.5 54L 68.3 50.8L 65.1 47.6L 62.7 49.8C 61.1 51.3 59.1 52 56.2 52L 52 52L 52 47.9C 52 45.1 52.6 43.3 53.7 42.5C 55.2 41.4 55.1 41.1 52.2 39.6C 47 36.9 46.6 37.3 47.3 45z"/>
<path style="stroke:none; fill:#000000" d="M 34.5 90.1L 34.5 105.8L 37.3 104.4C 39.1 103.4 40 102.2 40 100.5L 40 98L 50.9 98L 61.9 98L 62.2 100.9C 62.5 103.4 62.8 103.7 64.8 102.9C 67.1 102 67.2 101.7 66.9 91.5C 66.6 82.9 66.8 80.7 68 80C 69.3 79.2 69.1 78.6 66.8 76.3L 64 73.5L 62.4 75.8C 61 77.8 60.1 78 50.7 78C 42.6 78 39.9 77.6 37.5 76.2L 34.5 74.3L 34.5 90.1zM 62 88L 62 96L 51 96L 40 96L 40 88L 40 80L 51 80L 62 80L 62 88z"/>
</g>
</g>
</svg>