<?xml version="1.0" encoding="UTF-8" standalone="yes"?>
<!-- Created with sK1/UniConvertor (http://sk1project.org/) -->
<svg xmlns="http://www.w3.org/2000/svg" xmlns:xlink="http://www.w3.org/1999/xlink"
  width="100pt" height="127pt" viewBox="0 0 100 127"
  fill-rule="evenodd">
<g>
<g>
<path style="stroke:none; fill:#000000" d="M 47.7 33.6C 49.5 37.3 51 40.9 51 41.6C 51 43.5 53 43.3 54.6 41.2C 57.2 37.9 56.2 35.2 50.9 31C 48.1 28.8 45.5 27 45.1 27C 44.7 27 45.8 30 47.7 33.6z"/>
<path style="stroke:none; fill:#000000" d="M 71.7 31.4C 70.7 33.8 68.6 37.8 67 40.4L 64 45L 47.8 45C 34.8 45.1 31.9 45.3 33.5 46.2C 34.8 47 39.6 47.3 47.3 47.1L 59 46.8L 59 58.7C 59 65.2 58.7 72.2 58.4 74.2L 57.7 78L 51.4 78L 45 78L 45 68.8C 45 61.7 45.4 59.2 46.6 57.8C 48.2 56.1 48.1 55.9 44.7 54.5C 42.7 53.7 40.8 53 40.5 53C 40.2 53 40 58.3 40 64.8C 40 71.4 39.6 77 39 77.6C 38.3 78.3 38.8 79.4 40.5 81C 42.8 83.2 43.1 83.2 44.8 81.7C 46.1 80.5 48.4 80 52.3 80L 58 80L 56.5 83.7C 54.4 88.7 47.7 95.5 41.3 99.2C 35.3 102.6 34.7 103.3 38.8 102.4C 47.8 100.2 58.7 91.7 61.7 84.4L 63.5 80L 71.3 80L 79 80L 79 83C 79 85.8 79.1 85.9 81.5 84.8C 84 83.7 84 83.6 84 71C 84 63 84.4 58 85.1 57.3C 86 56.4 85.3 55.7 82.5 54.6C 80.4 53.7 78.6 53 78.4 53C 78.1 53 78.3 58.6 78.6 65.5L 79.3 78L 71.7 78L 64 78L 64 62.5L 64 47L 79.2 47L 94.5 47L 90.8 43.3L 87 39.6L 84.2 42.3C 81.7 44.7 80.7 45 73.9 45L 66.5 44.9L 73.6 38.1L 80.8 31.2L 77.9 29.1C 76.4 27.9 74.7 27 74.3 27C 73.9 27 72.7 29 71.7 31.4z"/>
</g>
</g>
</svg>