<?xml version="1.0" encoding="UTF-8" standalone="yes"?>
<!-- Created with sK1/UniConvertor (http://sk1project.org/) -->
<svg xmlns="http://www.w3.org/2000/svg" xmlns:xlink="http://www.w3.org/1999/xlink"
  width="98pt" height="128pt" viewBox="0 0 98 128"
  fill-rule="evenodd">
<g>
<g>
<path style="stroke:none; fill:#000000" d="M 71.5 32C 69.8 33.8 68.4 34 54.1 34C 42.4 34 38.9 34.3 39.7 35.1C 40.5 35.9 45.6 36.2 55.7 36.1L 70.4 35.9L 68.5 38.1C 64 43.1 42.3 62.3 40.2 63.1C 37.9 64 37.9 64 39.7 66.5C 40.8 68 42 68.7 43 68.3C 43.8 67.9 46.6 67.5 49.3 67.2C 53.4 66.9 54 67.1 54 68.7C 54 71.7 48.3 82.9 43.9 88.4C 39.9 93.4 32.2 100.4 29.7 101.3C 29.1 101.5 28.8 102.1 29.2 102.5C 30.4 103.8 40.3 97.6 46 92C 51.3 86.8 60 72.1 60 68.4C 60 67.4 61.3 67 64.5 67C 69.7 67 69.7 67.2 67.4 75.1C 62.7 90.9 50.9 105 35.7 113C 33.1 114.4 31 115.8 31 116.2C 31 117.4 31.7 117.2 39.3 113.6C 48.1 109.5 57.5 102.7 62.3 96.9C 66.7 91.4 72.5 79.4 74.1 72.4L 75.3 67L 79.7 67L 84.1 67L 83.5 73.7C 81 102.5 80 107.2 76.1 108.5C 75 108.8 71.3 108.6 68 107.9C 64.7 107.3 61.7 107 61.4 107.3C 61.1 107.6 62.8 108.7 65.3 109.8C 67.8 110.9 70.8 113.2 72 114.8C 74.2 117.7 74.4 117.8 77 116.5C 81.3 114.3 84.7 109.5 85.8 104.3C 86.4 101.7 87.4 92.7 88 84.5C 89 72 89.5 69.2 91 67.9C 92.8 66.3 92.8 66.2 90 63.5L 87 60.6L 84.7 62.8C 82.5 64.9 81.5 65 64.2 65L 45.9 65L 53.2 58.7C 57.2 55.3 64.4 48.8 69.2 44.2C 74 39.7 78.5 36 79.1 36C 79.8 36 79.1 34.6 77.5 33C 74.1 29.4 73.8 29.4 71.5 32z"/>
</g>
</g>
</svg>