<?xml version="1.0" encoding="UTF-8" standalone="yes"?>
<!-- Created with sK1/UniConvertor (http://sk1project.org/) -->
<svg xmlns="http://www.w3.org/2000/svg" xmlns:xlink="http://www.w3.org/1999/xlink"
  width="99pt" height="129pt" viewBox="0 0 99 129"
  fill-rule="evenodd">
<g>
<g>
<path style="stroke:none; fill:#000000" d="M 39.5 29.1C 35.3 31.8 20.5 36.3 17.8 35.7C 16.5 35.5 14.8 35 14 34.6C 12.7 34.1 12.5 35.8 12.8 47.8C 13.1 59.6 12.9 61.8 11.5 63C 10.1 64.2 10.2 64.6 12.6 67.1L 15.3 69.9L 18.4 67.6C 21.1 65.5 39.2 56 40.4 56C 40.6 56 41.3 57.3 42 59C 43.5 62.7 45.7 62.9 46.6 59.5C 47.8 54.6 46.3 52.3 39 47.9C 35.1 45.6 31.6 44 31.3 44.4C 30.9 44.7 32.6 47 35 49.5C 37.4 52 39.2 54.1 38.9 54.3C 38.7 54.5 34.7 56.1 30 57.8C 25.3 59.4 20.7 61.1 19.8 61.5C 18.1 62.2 18 61.2 18 50.3L 18 38.4L 33.1 35.6L 48.2 32.8L 45.4 29.9C 43.9 28.3 42.6 27 42.6 27.1C 42.5 27.1 41.2 28 39.5 29.1z"/>
<path style="stroke:none; fill:#000000" d="M 82.8 35C 81.6 36.9 80.5 37 63.6 37C 47.8 37 45.9 37.2 47 38.5C 48 39.7 49.4 39.9 53.1 39.4L 58 38.7L 58 41.7C 58 50.7 51.1 62.6 42.3 68.7C 35.7 73.2 36.9 74.3 44.1 70.3C 54.5 64.7 62.3 54.1 63.6 43.8L 64.3 39L 73.2 39L 82.2 39L 81.7 43.2C 81.3 45.6 80.8 50.1 80.4 53.3C 80.1 56.5 79 60 78 61.2C 76.4 63.2 75.9 63.3 70.2 62.3C 66.8 61.8 64 61.6 64 62C 64 62.4 65.8 63.5 68.1 64.5C 70.3 65.5 72.8 67.3 73.6 68.4C 74.9 70.3 75.1 70.3 78.5 68.7C 83.1 66.5 84.4 63.2 86 50.3C 86.7 44.1 87.8 39.6 88.6 38.9C 90.2 37.6 89.1 35.7 85.9 33.9C 84.5 33.2 83.8 33.4 82.8 35z"/>
</g>
</g>
</svg>