<?xml version="1.0" encoding="UTF-8" standalone="yes"?>
<!-- Created with sK1/UniConvertor (http://sk1project.org/) -->
<svg xmlns="http://www.w3.org/2000/svg" xmlns:xlink="http://www.w3.org/1999/xlink"
  width="98pt" height="128pt" viewBox="0 0 98 128"
  fill-rule="evenodd">
<g>
<g>
<path style="stroke:none; fill:#000000" d="M 12.7 62C 11.7 64.8 9.8 67.7 8.5 68.6C 3.7 71.8 7 76.1 12.2 73.4C 14.3 72.3 15.1 71 15.6 68L 16.3 64L 31.6 64L 47 64L 47 70.5L 47 77L 38 77C 31.8 77 28 76.5 26 75.5L 23 73.9L 23 92L 23 110L 25.5 108.8C 28 107.7 28 107.7 28 93.3L 28 79L 37.5 79L 47 79L 47 98.5L 47 118L 49.5 116.8L 52 115.7L 52 97.3L 52 79L 62 79L 72 79L 72 90.6L 72 102.2L 65 101.8C 61.2 101.6 58 101.8 58 102.3C 58 102.7 60 103.9 62.4 105C 64.8 106 67.5 107.8 68.3 109C 69.8 111.1 69.9 111.1 72.4 109.4C 76.5 106.8 77 105 77 92.1C 77 81.7 77.2 80 78.8 79C 80.3 78.1 80.2 77.8 77.5 75.5C 74.6 73.1 74.5 73.1 72.5 75C 70.7 76.7 68.9 77 61.2 77L 52 77L 52 70.5L 52 64L 67.9 64L 83.9 64L 81.3 68.5C 78.5 73.7 78.9 74.1 83.4 70.3C 85.1 68.9 88.2 66.9 90.2 66L 93.9 64.3L 90.4 60.9L 86.9 57.5L 85 59.7L 83.2 62L 49.6 62L 16 62L 16 59.5C 16 55.5 14.6 56.6 12.7 62z"/>
</g>
</g>
</svg>