<?xml version="1.0" encoding="UTF-8" standalone="yes"?>
<!-- Created with sK1/UniConvertor (http://sk1project.org/) -->
<svg xmlns="http://www.w3.org/2000/svg" xmlns:xlink="http://www.w3.org/1999/xlink"
  width="99pt" height="129pt" viewBox="0 0 99 129"
  fill-rule="evenodd">
<g>
<g>
<path style="stroke:none; fill:#000000" d="M 9.8 30.5C 9.5 30.9 10.3 33 11.6 35.3C 12.9 37.7 14.4 41.9 15 44.8C 15.9 48.9 16.6 50 18.1 50C 20.4 50 22.3 45.9 21.4 42.6C 20.8 40 10.7 29.6 9.8 30.5z"/>
<path style="stroke:none; fill:#000000" d="M 24.2 55.3C 14.3 78.8 14.1 79 8.5 79C 5.2 79 4 79.4 4 80.5C 4 81.3 4.8 82 5.8 82C 6.8 82 8.6 82.7 9.9 83.6C 12 85.1 12.2 85.8 11.7 90.9C 11.4 94 10.8 98.1 10.4 100.1C 9.7 104.3 11.9 107.3 15.4 106.8C 17.4 106.5 17.5 106 17.5 93.5L 17.5 80.5L 25.3 59.9C 29.5 48.6 33 39 33 38.7C 33 35.7 30.4 40.5 24.2 55.3z"/>
</g>
</g>
</svg>