<?xml version="1.0" encoding="UTF-8" standalone="yes"?>
<!-- Created with sK1/UniConvertor (http://sk1project.org/) -->
<svg xmlns="http://www.w3.org/2000/svg" xmlns:xlink="http://www.w3.org/1999/xlink"
  width="97pt" height="128pt" viewBox="0 0 97 128"
  fill-rule="evenodd">
<g>
<g>
<path style="stroke:none; fill:#000000" d="M 15 61.7C 15 78.7 14.7 93.4 14.4 94.6C 14 96 14.7 97.7 16.3 99.6L 18.8 102.5L 27.2 94.5C 31.8 90.1 38.5 83.8 42.3 80.6C 46 77.4 49 74.4 49 73.9C 49 73.4 42.8 77.1 35.3 82.1L 21.5 91.1L 21.2 64.9C 21 42 21.2 38.5 22.6 36.9C 24.1 35.3 23.9 35 20.1 33.1C 17.9 31.9 15.8 31 15.5 31C 15.2 31 15 44.8 15 61.7z"/>
</g>
</g>
</svg>