<?xml version="1.0" encoding="UTF-8" standalone="yes"?>
<!-- Created with sK1/UniConvertor (http://sk1project.org/) -->
<svg xmlns="http://www.w3.org/2000/svg" xmlns:xlink="http://www.w3.org/1999/xlink"
  width="98pt" height="128pt" viewBox="0 0 98 128"
  fill-rule="evenodd">
<g>
<g>
<path style="stroke:none; fill:#000000" d="M 46.8 53.5C 46.5 53.8 48 58.5 50.1 63.8C 52.2 69.1 54.3 76.4 54.9 79.9C 56.2 87.7 57.1 88.9 59.9 86.1C 62.6 83.4 62.6 78.3 59.9 72.6C 57.3 67 47.5 52.8 46.8 53.5z"/>
<path style="stroke:none; fill:#000000" d="M 76.3 65.3C 73.9 75.1 67 95.6 62.5 106.4C 61.9 107.8 62.1 108.1 63.5 107.9C 64.5 107.7 65.4 106.8 65.6 106C 66 103.3 84 63.5 86 60.8L 88 58.1L 85.8 56.9C 84.5 56.2 82.6 55.1 81.4 54.4C 79.4 53.1 79.3 53.4 76.3 65.3z"/>
<path style="stroke:none; fill:#000000" d="M 27.3 58.2C 32.3 69.9 35.3 78.4 36.6 83.8C 38.4 91.5 39.3 92.8 41.5 91C 43.3 89.5 43.5 82.6 42 78.3C 40.6 74.6 28.8 57 27.7 57C 27.2 57 27 57.6 27.3 58.2z"/>
</g>
</g>
</svg>