<?xml version="1.0" encoding="UTF-8" standalone="yes"?>
<!-- Created with sK1/UniConvertor (http://sk1project.org/) -->
<svg xmlns="http://www.w3.org/2000/svg" xmlns:xlink="http://www.w3.org/1999/xlink"
  width="98pt" height="128pt" viewBox="0 0 98 128"
  fill-rule="evenodd">
<g>
<g>
<path style="stroke:none; fill:#000000" d="M 71.2 45C 70 46.9 68.9 47 43.2 47C 23.4 47.1 17 47.3 18.4 48.2C 19.6 48.9 28.8 49.2 45.6 49.1L 71 48.9L 71 63.9L 71 79L 38.8 79C 12.9 79 6.90001 79.2 8.00001 80.2C 9.20001 81.2 18.8 81.4 51.8 81L 94.1 80.5L 90.1 76.6L 86 72.6L 82.7 75.8C 80.9 77.6 78.6 79 77.7 79C 76.2 79 76 77.5 76 64.7C 76 51.3 76.1 50.4 78.1 49.2C 80.2 47.9 80.2 47.8 76.7 45.4C 72.4 42.5 72.8 42.5 71.2 45z"/>
</g>
</g>
</svg>