<?xml version="1.0" encoding="UTF-8" standalone="yes"?>
<!-- Created with sK1/UniConvertor (http://sk1project.org/) -->
<svg xmlns="http://www.w3.org/2000/svg" xmlns:xlink="http://www.w3.org/1999/xlink"
  width="99pt" height="130pt" viewBox="0 0 99 130"
  fill-rule="evenodd">
<g>
<g>
<path style="stroke:none; fill:#000000" d="M 42.5 60.5C 37.1 65.9 32.3 69.7 27.8 72C 21.5 75.2 19.5 77 22 77C 24.9 77 36.3 71.3 44.9 65.7C 50.2 62.2 55.1 59.1 55.8 58.9C 56.6 58.6 55.9 57.4 53.8 55.5L 50.5 52.5L 42.5 60.5z"/>
<path style="stroke:none; fill:#000000" d="M 56.5 72.1C 48.3 80.5 29.9 92.7 19.9 96.2C 19.1 96.5 18.8 97.1 19.2 97.5C 21.1 99.5 40.3 90.5 55.6 80.5C 60.1 77.6 64.5 75 65.5 74.8C 66.8 74.6 66.5 73.9 63.8 71.3L 60.4 68L 56.5 72.1z"/>
<path style="stroke:none; fill:#000000" d="M 68.9 88.6C 61.2 96.7 42.4 107.7 25.7 114C 17.1 117.2 14 119.8 20.2 118.5C 33.8 115.7 52.6 107.6 68.4 97.6C 73.2 94.5 77.9 92 78.8 92C 79.9 92 79.4 90.9 77 88.5C 75.1 86.6 73.3 85 73 85C 72.7 85 70.8 86.6 68.9 88.6z"/>
</g>
</g>
</svg>