<?xml version="1.0" encoding="UTF-8" standalone="yes"?>
<!-- Created with sK1/UniConvertor (http://sk1project.org/) -->
<svg xmlns="http://www.w3.org/2000/svg" xmlns:xlink="http://www.w3.org/1999/xlink"
  width="98pt" height="129pt" viewBox="0 0 98 129"
  fill-rule="evenodd">
<g>
<g>
<path style="stroke:none; fill:#000000" d="M 60 77.5L 60 118L 62.5 116.8L 65 115.7L 65 78.8L 65 42L 73.5 42L 82 42L 82 66.8C 82 96.2 82.2 95.6 73.6 94.6C 70.5 94.3 68 94.3 68 94.7C 68 95.2 70.3 96.5 73 97.7C 75.9 98.9 78 100.5 78 101.4C 78 103.3 80.6 102.5 83.8 99.7C 86 97.7 86 97.4 86 70.4C 86 46.9 86.2 43.1 87.6 41.9C 89 40.8 88.9 40.4 86.8 38.8C 84 36.6 82.1 36.5 81.4 38.5C 80.6 40.6 66.2 40.6 63.4 38.5C 62.4 37.7 61.2 37 60.8 37C 60.3 37 60 55.2 60 77.5z"/>
</g>
</g>
</svg>