<?xml version="1.0" encoding="UTF-8" standalone="yes"?>
<!-- Created with sK1/UniConvertor (http://sk1project.org/) -->
<svg xmlns="http://www.w3.org/2000/svg" xmlns:xlink="http://www.w3.org/1999/xlink"
  width="99pt" height="128pt" viewBox="0 0 99 128"
  fill-rule="evenodd">
<g>
<g>
<path style="stroke:none; fill:#000000" d="M 48.4 29.2C 49.8 31.1 51.3 34.1 51.6 35.8L 52.3 39L 36.4 39C 22.5 39 20.1 38.8 17.4 37.1L 14.2 35.2L 13.8 61.3C 13.3 85.4 13.1 88.3 10.7 97.2C 9.3 102.5 7.2 108.9 6.1 111.4C 3.2 118.2 5.4 117 9.5 109.6C 16.8 96.5 18.5 88.1 19.6 59.2L 20.3 41L 57.1 41L 93.9 41L 90.2 37L 86.6 33L 83.5 36L 80.4 39L 68.4 39L 56.3 39L 56.4 34.8C 56.5 31.2 56.1 30.4 53.5 28.9C 51.9 28 49.4 26.9 48.1 26.5L 45.7 25.8L 48.4 29.2z"/>
<path style="stroke:none; fill:#000000" d="M 40.8 49L 41.2 55L 31.9 55C 24.5 55.1 22.9 55.3 24.4 56.2C 25.5 56.8 29.7 57.2 33.8 57.1L 41.3 56.9L 40.8 66.5C 40.3 76 40.3 76.2 42.4 75.6C 43.5 75.3 44.8 75 45.3 75C 45.7 75 46 74.3 46 73.5C 46 72.3 47.7 72 55.5 72C 64.1 72 65 72.2 65 73.9C 65 75.3 65.6 75.6 67.5 75.2C 69.9 74.8 70 74.6 70 65.9L 70 57L 81 57L 92 57L 88.2 53.6L 84.5 50.1L 81.9 52.6C 80 54.4 78.3 55 74.7 55C 70 55 70 55 70 51.6C 70 49.8 70.7 47.7 71.6 47C 72.9 45.8 72.7 45.5 69.9 44.3C 68.2 43.6 66.4 43 65.9 43C 65.4 43 65 45.7 65 49L 65 55L 55.5 55L 46 55L 46 51.2C 46 49.1 46.5 46.9 47.1 46.3C 47.8 45.6 47.2 44.9 44.9 44.1C 43.2 43.5 41.4 43 41 43C 40.7 43 40.6 45.7 40.8 49zM 65 63.5L 65 70L 55.5 70L 46 70L 46 63.5L 46 57L 55.5 57L 65 57L 65 63.5z"/>
</g>
</g>
</svg>