<?xml version="1.0" encoding="UTF-8" standalone="yes"?>
<!-- Created with sK1/UniConvertor (http://sk1project.org/) -->
<svg xmlns="http://www.w3.org/2000/svg" xmlns:xlink="http://www.w3.org/1999/xlink"
  width="98pt" height="128pt" viewBox="0 0 98 128"
  fill-rule="evenodd">
<g>
<g>
<path style="stroke:none; fill:#000000" d="M 79 40.5L 76.7 43L 43.1 43C 17.1 43 9.89999 43.3 10.8 44.2C 11.6 45 16.1 45.3 26.1 45.1L 40.2 44.8L 38.9 47.2C 34.1 56.4 24.1 68.4 18.6 71.5C 16.9 72.5 16.9 72.7 18.5 76.1L 20.2 79.7L 25.4 78.4C 30 77.3 42.3 75.6 63.9 73.2L 71.3 72.3L 73.9 76.6C 75.3 79 76.9 81 77.3 81C 78.5 81 80.9 74.8 80.2 73.1C 79.9 72.2 78.8 70.4 77.6 69.1C 75.2 66.4 58.3 55 56.7 55C 56.1 55 58.8 58.2 62.6 62.2L 69.5 69.4L 66.5 70.1C 64.9 70.5 54.7 71 44 71.4L 24.4 71.9L 35.8 60.5C 42.1 54.2 47.7 49 48.4 49C 49 49 48.2 48.1 46.5 47L 43.5 45L 66.4 45L 89.4 45L 86 41.5C 84.1 39.6 82.3 38 82 38C 81.6 38 80.3 39.1 79 40.5z"/>
</g>
</g>
</svg>