<?xml version="1.0" encoding="UTF-8" standalone="yes"?>
<!-- Created with sK1/UniConvertor (http://sk1project.org/) -->
<svg xmlns="http://www.w3.org/2000/svg" xmlns:xlink="http://www.w3.org/1999/xlink"
  width="97pt" height="128pt" viewBox="0 0 97 128"
  fill-rule="evenodd">
<g>
<g>
<path style="stroke:none; fill:#000000" d="M 74 60.5L 71.7 63L 41.1 63C 17.1 63 10.9 63.3 11.8 64.2C 12.7 65.1 17.4 65.4 29 65.1L 45 64.8L 45 84.9C 45 96 44.6 105 44.2 105C 42.3 105 34.1 98.9 30.6 94.9C 27.1 90.8 26.9 90.1 27.4 86.1C 27.7 83.6 28.9 80.7 30 79.5L 32 77.4L 27.6 75.2L 23.1 73.1L 22.6 75.8C 22.3 77.3 21.8 81 21.4 84C 21.1 87 19.7 92.4 18.4 95.9C 15.9 102.4 8.2 114.2 5.3 115.8C 4.4 116.4 4.2 117 4.7 117.3C 5.3 117.7 8.7 115.3 12.3 111.9C 17 107.7 19.9 103.9 22.4 99L 25.8 92.1L 28.3 95.8C 37.3 109.2 45.9 113.2 69.3 115L 82.2 116L 85 113C 86.5 111.3 88.5 110 89.4 110C 90.3 110 91 109.7 91 109.2C 91 108.8 83.2 108.5 73.8 108.5C 64.3 108.5 55.3 108.2 53.8 107.7L 51 107L 51 97L 51 87L 66 87L 81 87L 77.2 83.6L 73.5 80.1L 70.9 82.6C 68.6 84.8 67.5 85 59.7 85L 51 85L 51 75L 51 65L 67.7 65L 84.4 65L 81 61.5C 79.1 59.6 77.3 58 77 58C 76.6 58 75.3 59.1 74 60.5z"/>
</g>
</g>
</svg>