<?xml version="1.0" encoding="UTF-8" standalone="yes"?>
<!-- Created with sK1/UniConvertor (http://sk1project.org/) -->
<svg xmlns="http://www.w3.org/2000/svg" xmlns:xlink="http://www.w3.org/1999/xlink"
  width="98pt" height="130pt" viewBox="0 0 98 130"
  fill-rule="evenodd">
<g>
<g>
<path style="stroke:none; fill:#000000" d="M 38.5 31.5C 36.3 32.9 30.9 35.4 26.5 37.1C 19 40 18.5 40.1 15.3 38.6L 12.1 37.1L 11.8 66.8C 11.5 94.8 11.6 96.7 13.4 99.6L 15.4 102.7L 20.5 99.4C 24.8 96.7 37.7 90.8 46.5 87.5C 47.7 87.1 48 86.6 47.3 86.3C 46.3 85.9 39.8 87.6 21.3 92.9L 18 93.9L 18 80.4L 18 67L 32.5 67L 47.1 67L 43.5 63.9L 39.9 60.7L 37.6 62.9C 35.7 64.7 34.2 65 26.7 65L 18 65L 18 53.5L 18 42.1L 22.3 41C 24.6 40.4 29.7 39 33.5 38C 37.4 37 42.5 35.8 44.8 35.5L 49.2 34.8L 46.4 31.9C 44.9 30.3 43.4 29 43.1 29C 42.8 29 40.7 30.2 38.5 31.5z"/>
</g>
</g>
</svg>