<?xml version="1.0" encoding="UTF-8" standalone="yes"?>
<!-- Created with sK1/UniConvertor (http://sk1project.org/) -->
<svg xmlns="http://www.w3.org/2000/svg" xmlns:xlink="http://www.w3.org/1999/xlink"
  width="99pt" height="128pt" viewBox="0 0 99 128"
  fill-rule="evenodd">
<g>
<g>
<path style="stroke:none; fill:#000000" d="M 74.5 59C 72.8 60.9 71.4 61 45.6 61C 24 61 18.9 61.2 19.9 62.2C 20.8 63.2 24.6 63.4 34.1 63.1L 47 62.8L 47 68.9L 47 75L 26.8 75C 11.1 75 6.9 75.3 7.8 76.2C 8.7 77.1 14.3 77.3 28 77.1L 47 76.8L 47 82.4L 47 88L 32.8 88C 21.7 88 18.9 88.3 19.8 89.2C 20.7 90.1 24.8 90.3 34 90.1L 47 89.8L 47 98.3C 47 109.3 46.6 109.7 36.2 108.3C 26.9 107.1 24.7 108.2 32.3 110.4C 35.9 111.5 38.7 113 40.3 115C 42.4 117.5 43.3 117.8 45.2 117.1C 50.4 115.1 51.5 112.6 51.8 100.9L 52.2 90L 63.1 90C 73.3 90 74 90.1 74 92C 74 94.3 74.4 94.4 77.1 93C 78.7 92.1 79 90.8 79 84.5L 79 77.1L 86.9 76.8L 94.8 76.5L 91.8 73.1L 88.8 69.8L 86.1 72.4C 84.6 73.8 82.4 75 81.2 75C 79.2 75 79 74.5 79 69.6C 79 64.9 79.3 64 81.1 63.5C 83.1 62.8 83.1 62.7 80.4 59.9C 77.1 56.5 76.8 56.4 74.5 59zM 74 69L 74 75L 63 75L 52 75L 52 69L 52 63L 63 63L 74 63L 74 69zM 74 82.5L 74 88L 63 88L 52 88L 52 82.5L 52 77L 63 77L 74 77L 74 82.5z"/>
</g>
</g>
</svg>