<?xml version="1.0" encoding="UTF-8" standalone="yes"?>
<!-- Created with sK1/UniConvertor (http://sk1project.org/) -->
<svg xmlns="http://www.w3.org/2000/svg" xmlns:xlink="http://www.w3.org/1999/xlink"
  width="99pt" height="129pt" viewBox="0 0 99 129"
  fill-rule="evenodd">
<g>
<g>
<path style="stroke:none; fill:#000000" d="M 42.2 33.4C 34.5 49.3 22.6 62.8 9.4 70.5C 0.700002 75.6 1.3 76.9 10.3 72.4C 25.6 64.7 35 56.3 44.5 42C 47.1 38.1 49.4 35 49.5 35.2C 49.7 35.4 52.1 38.9 54.7 43C 61.4 53.2 69.8 62.1 78 67.5L 84.8 72L 88.6 69.5C 90.6 68.1 92.9 67 93.7 67C 94.5 67 94.8 66.5 94.5 66C 94.2 65.4 92.8 65 91.6 65C 87.2 65 73.1 57 66.3 50.7C 60.2 44.9 51 34 51 32.4C 51 32 51.7 31.2 52.5 30.6C 53.7 29.7 53.3 29.1 50.1 27.4L 46.1 25.2L 42.2 33.4z"/>
</g>
</g>
</svg>