<?xml version="1.0" encoding="UTF-8" standalone="yes"?>
<!-- Created with sK1/UniConvertor (http://sk1project.org/) -->
<svg xmlns="http://www.w3.org/2000/svg" xmlns:xlink="http://www.w3.org/1999/xlink"
  width="99pt" height="128pt" viewBox="0 0 99 128"
  fill-rule="evenodd">
<g>
<g>
<path style="stroke:none; fill:#000000" d="M 80 50.5L 77.7 53L 44.1 53C 17.8 53 10.9 53.3 11.8 54.2C 12.6 55 15.7 55.3 21 55.1L 29 54.8L 29 63.9L 29 73L 16.8 73C 7.39999 73 4.89999 73.3 5.8 74.2C 6.6 75 10.5 75.3 18 75.1L 29 74.8L 29 84.4L 29 94L 17.8 94C 8.6 94 6.89999 94.2 8.3 95.2C 9.6 96.2 19.5 96.4 51.2 96.2L 92.3 96L 89 92.5C 85 88.3 84.1 88.2 81 91.5C 79.6 93 77.5 94 75.8 94L 73 94L 73 84.5L 73 75L 83.7 75L 94.4 75L 90.5 71L 86.6 67L 83.5 70C 81.2 72.2 79.5 73 76.7 73L 73 73L 73 64L 73 55L 82 55L 91 55L 87.1 51.5C 85 49.6 83.1 48 82.8 48C 82.6 48 81.3 49.1 80 50.5zM 48 64L 48 73L 41 73L 34 73L 34 64L 34 55L 41 55L 48 55L 48 64zM 67 64L 67 73L 60 73L 53 73L 53 64L 53 55L 60 55L 67 55L 67 64zM 48 84.5L 48 94L 41 94L 34 94L 34 84.5L 34 75L 41 75L 48 75L 48 84.5zM 67 84.5L 67 94L 60 94L 53 94L 53 84.5L 53 75L 60 75L 67 75L 67 84.5z"/>
</g>
</g>
</svg>