<?xml version="1.0" encoding="UTF-8" standalone="yes"?>
<!-- Created with sK1/UniConvertor (http://sk1project.org/) -->
<svg xmlns="http://www.w3.org/2000/svg" xmlns:xlink="http://www.w3.org/1999/xlink"
  width="100pt" height="129pt" viewBox="0 0 100 129"
  fill-rule="evenodd">
<g>
<g>
<path style="stroke:none; fill:#000000" d="M 31.1 33.4C 30.5 34.2 27.6 35.8 24.8 37C 19.8 39.1 19.5 39.2 16.7 37.5L 13.7 35.7L 14.3 47.6C 14.7 54.1 15.3 65.9 15.6 73.7L 16.3 88L 9.9 88C 4.7 88 3.8 88.2 5 89.2C 6.2 90.2 16.3 90.4 51.2 90L 95.8 89.5L 92.8 86.1L 89.8 82.8L 87.1 85.4C 83 89.4 82.1 88.8 82.6 82.2C 82.9 79.1 83.4 68.4 83.9 58.6C 84.6 44.1 85.1 40.4 86.4 39.5C 87.7 38.5 87.6 38.1 85.1 36.2C 82.2 34.1 82.2 34.1 80.5 36.1C 79.1 37.6 77.4 38 72.2 38C 66.6 38 65.9 38.2 67 39.5C 67.9 40.6 69.6 40.8 74.3 40.3L 80.3 39.7L 79.7 44.5C 79.3 47.1 79 50.8 79 52.6L 79 56L 72.9 56C 67.5 56 66.9 56.2 68 57.5C 69 58.7 70.4 58.9 74.1 58.4C 79.6 57.7 79.7 57.7 78.4 67.4L 77.7 72L 73.2 72C 69.3 72 68.9 72.2 70 73.5C 70.9 74.6 72.2 74.9 74.7 74.4L 78.1 73.8L 77.8 80.6L 77.5 87.5L 49.3 87.8L 21 88L 21 84.3C 21 82.2 20.7 78.8 20.4 76.7L 19.7 73L 27.6 73L 35.4 73L 32.5 70L 29.6 67L 27.5 69C 26.3 70.1 24.2 71 22.7 71C 20 71 20 70.9 20 64.5L 20 58.1L 27 57.8L 34 57.5L 31.6 54.5L 29.2 51.5L 26.8 53.7C 25.5 55 23.2 56 21.7 56C 19 56 19 56 19 48.6C 19 40.2 18.3 40.9 28.5 39C 38.5 37.1 38.2 37.3 36.4 34.4C 34.6 31.7 32.8 31.3 31.1 33.4z"/>
<path style="stroke:none; fill:#000000" d="M 30 98.3C 24.6 104.1 14.2 112.5 8 116C 7.2 116.5 6.8 117.1 7.2 117.5C 8.1 118.4 18.7 112.9 27.9 106.5C 32.4 103.5 37.6 100.2 39.5 99.2L 43 97.4L 39.8 94.4L 36.5 91.3L 30 98.3z"/>
<path style="stroke:none; fill:#000000" d="M 59.6 94.9C 60.1 95.3 63.7 97.7 67.5 100.2C 71.4 102.7 77.5 107.5 81.1 110.8C 84.8 114.2 88 116.6 88.4 116.3C 89.3 115.4 89.1 110.5 88.1 107.6C 86.8 104.4 80.8 101 69.7 97.1C 60.6 93.9 57.8 93.3 59.6 94.9z"/>
</g>
</g>
</svg>