<?xml version="1.0" encoding="UTF-8" standalone="yes"?>
<!-- Created with sK1/UniConvertor (http://sk1project.org/) -->
<svg xmlns="http://www.w3.org/2000/svg" xmlns:xlink="http://www.w3.org/1999/xlink"
  width="99pt" height="129pt" viewBox="0 0 99 129"
  fill-rule="evenodd">
<g>
<g>
<path style="stroke:none; fill:#000000" d="M 28 34L 28 41L 19.4 41C 12.3 41 10.9 41.2 11.9 42.3C 12.7 43.3 14.9 43.6 20.5 43.2L 28 42.7L 28 48.4L 28 54L 15.8 54C 6.6 54 3.9 54.3 4.8 55.2C 5.6 56 13.2 56.2 31.4 56.1L 56.9 55.9L 57.4 59.2C 59.2 72.1 61.2 82.6 62.6 86.6C 63.9 90.6 64 91.8 63 93.5C 59.9 98.3 53 105.7 46.2 111.1C 42.2 114.4 39.5 117 40.3 117C 42.7 117 53.3 109.6 60.4 102.9C 66.7 97 67.3 96.7 68.3 98.5C 72 105.1 85.2 116 91.4 117.6C 94.1 118.2 94.3 118.1 93.5 115.9C 93.1 114.6 92.5 108.5 92.1 102.5C 91.5 91.2 91 91.1 89 101.5C 88.3 104.8 87.6 107.8 87.3 108.3C 85.9 110.6 71 96 71 92.3C 71 91.5 72.3 89 73.8 86.7C 75.4 84.4 78.4 79.3 80.5 75.5C 82.6 71.6 84.9 67.8 85.6 67C 86.7 65.7 86.4 65.1 83.5 63.3C 79.8 60.8 79.8 60.8 78 66.5C 75.8 73.5 68.9 86.3 67.9 85.3C 66.9 84.3 63.5 69.3 62.6 61.2L 61.9 56L 78.2 56L 94.5 56L 90.8 52.4L 87.2 48.7L 83.8 51.4C 80.6 53.8 79.5 54 71.2 54L 62.2 54L 61.5 44.5C 60.9 36.2 61 34.7 62.5 33C 64.1 31.2 64 31 60 29L 55.8 26.9L 56.6 40.4L 57.3 54L 45.1 54L 33 54L 33 48.5L 33 43L 42.7 43L 52.4 43L 49.5 40C 46.1 36.5 44.9 36.3 42.5 39C 41.3 40.3 39.4 41 36.8 41C 33 41 33 41 33 37.1C 33 34.9 33.6 32.7 34.5 32C 36.4 30.5 36.4 30.5 31.7 28.5L 28 27L 28 34z"/>
<path style="stroke:none; fill:#000000" d="M 69 33.8C 69 34.3 70.2 35.7 71.6 37.1C 73 38.4 75.3 41.4 76.7 43.7C 80.2 49.6 83 49.1 83 42.6C 83 39.9 81 38 75.3 35.1C 70.8 32.9 69 32.5 69 33.8z"/>
</g>
</g>
</svg>