<?xml version="1.0" encoding="UTF-8" standalone="yes"?>
<!-- Created with sK1/UniConvertor (http://sk1project.org/) -->
<svg xmlns="http://www.w3.org/2000/svg" xmlns:xlink="http://www.w3.org/1999/xlink"
  width="98pt" height="128pt" viewBox="0 0 98 128"
  fill-rule="evenodd">
<g>
<g>
<path style="stroke:none; fill:#000000" d="M 75.9 50.2C 74.7 52 71.7 55.9 69.2 58.7C 66.8 61.6 65.2 64 65.5 64C 65.9 64 69 62 72.4 59.6C 75.7 57.3 79.7 54.6 81.3 53.9L 84 52.4L 81.1 49.6L 78.2 46.9L 75.9 50.2z"/>
<path style="stroke:none; fill:#000000" d="M 13 49.8C 13 50.3 14.2 51.7 15.6 53.1C 17.1 54.4 19.4 57.3 20.7 59.4L 23.3 63.4L 24.7 60.6C 26.8 56.5 25.1 53.4 19.4 51C 14.4 48.8 13 48.6 13 49.8z"/>
<path style="stroke:none; fill:#000000" d="M 18.8 73.8L 8.1 79.4L 10.2 82.2L 12.2 85.1L 17.9 79.8C 21 76.9 25.3 73.1 27.5 71.3C 33.1 66.8 31.2 67.4 18.8 73.8z"/>
<path style="stroke:none; fill:#000000" d="M 67 68.4C 67 68.7 69.4 70.5 72.4 72.5C 75.3 74.4 79 77.9 80.5 80.2C 83.5 84.7 85 84.1 85 78.4C 85 74.4 83 72.8 75.1 70.1C 68.5 68 67 67.6 67 68.4z"/>
</g>
</g>
</svg>