<?xml version="1.0" encoding="UTF-8" standalone="yes"?>
<!-- Created with sK1/UniConvertor (http://sk1project.org/) -->
<svg xmlns="http://www.w3.org/2000/svg" xmlns:xlink="http://www.w3.org/1999/xlink"
  width="98pt" height="128pt" viewBox="0 0 98 128"
  fill-rule="evenodd">
<g>
<g>
<path style="stroke:none; fill:#000000" d="M 73.6 30.7C 67.6 33.2 46.7 38 41.8 38C 40.3 38 38.8 38.4 38.5 39C 38.2 39.6 38.9 40 40.2 40C 43.2 40 85.3 35 85.7 34.7C 85.8 34.5 84.5 33 82.7 31.4L 79.5 28.3L 73.6 30.7z"/>
<path style="stroke:none; fill:#000000" d="M 81 39.5C 81 40.3 78.7 45.4 75.9 50.7L 70.9 60.5L 75.7 55.5C 78.3 52.7 82.3 48.7 84.6 46.5L 88.8 42.4L 84.9 40.2C 81.7 38.4 81 38.2 81 39.5z"/>
<path style="stroke:none; fill:#000000" d="M 57.4 45.7C 58.7 48.4 60.1 52 60.5 53.7C 61.3 57.5 62 57.8 64.5 55C 67 52.2 65.8 48.8 60.6 44.6C 58.3 42.6 56 41 55.6 41C 55.3 41 56 43.1 57.4 45.7z"/>
<path style="stroke:none; fill:#000000" d="M 41.9 46.7C 42.9 48.8 44.3 52.4 45 54.6C 46.2 58.5 46 59.1 43.5 63.8C 42 66.5 38.8 71 36.3 73.9C 33.9 76.7 32.3 79 32.9 79C 33.4 79 36.8 76.5 40.4 73.5C 46.7 68.1 47 68 52.9 68L 59 68L 59 75.5L 59 83L 44.3 83C 32.6 83 29.9 83.3 30.8 84.2C 31.8 85.2 35.7 85.4 45.5 85.1L 59 84.8L 59 96.4L 59 108L 51 108L 43 108L 43 101.1C 43 96.1 43.4 93.9 44.6 92.9C 46 91.8 45.8 91.4 42.8 89.9C 41 88.9 39.1 88.1 38.6 88C 38.1 88 38 91.7 38.4 96.7C 38.9 103.7 38.7 105.6 37.5 107C 36.2 108.5 36.2 108.9 38.4 110.9C 40.4 112.8 40.8 112.9 42 111.5C 43 110.3 46.3 110 61.6 110L 80 110L 80 112.5C 80 114.8 80.2 114.9 82.6 113.8C 85.3 112.6 85.3 112.6 84.6 103.8C 84 96.1 84.1 95 85.7 94.1C 87.9 92.9 87.5 92.5 82.6 90.5L 78.7 88.9L 79.4 98.4L 80.1 108L 72.1 108L 64 108L 64 96.5L 64 85L 78.7 85L 93.5 85L 89.8 81.3L 86 77.6L 83.2 80.3C 80.6 82.8 79.7 83 72.2 83L 64 83L 64 75.5L 64 68L 75.5 68L 87 68L 83.2 64.6L 79.5 61.1L 76.9 63.6C 74.5 65.9 73.8 66 60.9 66L 47.5 65.9L 50.2 63.5L 53 61.1L 50 59C 47.2 57 47.1 56.8 48.6 54.5C 50.5 51.6 49.5 49.2 44.6 45.5C 40.1 42.1 39.6 42.3 41.9 46.7z"/>
</g>
</g>
</svg>