<?xml version="1.0" encoding="UTF-8" standalone="yes"?>
<!-- Created with sK1/UniConvertor (http://sk1project.org/) -->
<svg xmlns="http://www.w3.org/2000/svg" xmlns:xlink="http://www.w3.org/1999/xlink"
  width="99pt" height="130pt" viewBox="0 0 99 130"
  fill-rule="evenodd">
<g>
<g>
<path style="stroke:none; fill:#000000" d="M 47.5 31.7C 46.1 42 47.9 41 29.7 41C 17.2 41 13.9 41.3 14.8 42.2C 15.6 43 20.3 43.3 30.6 43.1L 45.3 42.8L 44.6 45.4C 42.6 53.4 43.4 53 29.8 53C 20.4 53 17.9 53.3 18.8 54.2C 19.6 55 23.4 55.3 30.5 55.1C 36.3 55 41 55.1 41 55.3C 41 55.6 40.1 57.9 39 60.4L 37.1 65L 23.8 65C 14.1 65 10.9 65.3 11.7 66.1C 12.4 66.8 17 67.2 24.5 67.1L 36.2 66.9L 33.1 71.3C 28.6 77.9 21.4 84.7 13.2 90.1C 9.3 92.7 5.4 95 4.7 95.3C 4.1 95.5 3.8 96 4.1 96.4C 5 97.4 16.2 91.7 23.5 86.5C 30.1 81.8 36.5 75.3 39.5 70.2L 41.4 67L 50.1 67L 58.8 67L 60.9 70.2C 64.2 75.6 73.1 83.6 80.4 87.9C 86.5 91.4 87.6 91.8 88.9 90.5C 89.8 89.8 91.9 88.6 93.5 88C 96.2 86.9 96.3 86.7 94.5 86C 93.4 85.6 90.3 84.7 87.6 84.1C 80.1 82.3 72 78.1 66.8 73.2C 64.1 70.7 62 68.3 62 67.9C 62 67.4 68.8 67 77.2 67L 92.4 67L 88.5 63L 84.6 59L 81.5 62L 78.4 65L 60.7 65C 49.1 65 43 64.6 43 64C 43 63.4 43.9 61.1 45 59L 47 55L 63 55L 79 55L 75.2 51.6L 71.5 48.1L 68.9 50.6C 66.6 52.8 65.6 53 57.2 53C 52.1 53 48 52.7 48 52.3C 48 51.9 48.7 49.6 49.6 47.3L 51.3 43L 69.3 43L 87.4 43L 83.5 39L 79.6 35L 76.5 38C 73.4 41 73.3 41 62.6 41L 51.8 41L 52.4 38.2C 52.8 36.7 54 34.7 55.1 33.8C 57.1 32.1 57.1 32.1 54.8 30.9C 53.5 30.2 51.5 29.1 50.4 28.3C 48.3 27 48.2 27.1 47.5 31.7z"/>
</g>
</g>
</svg>