<?xml version="1.0" encoding="UTF-8" standalone="yes"?>
<!-- Created with sK1/UniConvertor (http://sk1project.org/) -->
<svg xmlns="http://www.w3.org/2000/svg" xmlns:xlink="http://www.w3.org/1999/xlink"
  width="98pt" height="127pt" viewBox="0 0 98 127"
  fill-rule="evenodd">
<g>
<g>
<path style="stroke:none; fill:#000000" d="M 74.6 29.6C 69.1 31.6 51.4 34.9 37.6 36.5C 27.2 37.7 25.3 37.7 22.8 36.4L 20 34.9L 20 55.2C 20 84.9 17.8 95.1 8.8 108.6C 6 112.7 4 116.3 4.3 116.6C 5.1 117.5 15.6 105.2 18.4 100.1C 23.7 90.3 25.1 81.6 25.1 59.8L 25.1 40.2L 32.3 39.6C 36.3 39.2 47.4 38.3 57 37.5C 66.6 36.7 76.8 35.9 79.7 35.7L 84.8 35.5L 81.7 31.9C 78.5 28.2 78.5 28.2 74.6 29.6z"/>
</g>
</g>
</svg>