<?xml version="1.0" encoding="UTF-8" standalone="yes"?>
<!-- Created with sK1/UniConvertor (http://sk1project.org/) -->
<svg xmlns="http://www.w3.org/2000/svg" xmlns:xlink="http://www.w3.org/1999/xlink"
  width="97pt" height="129pt" viewBox="0 0 97 129"
  fill-rule="evenodd">
<g>
<g>
<path style="stroke:none; fill:#000000" d="M 67.1 35.4C 65.4 39.8 62.9 45.5 61.7 48L 59.5 52.5L 37.3 52.8L 15 53L 15 50.5C 15 49.1 14.6 48 14.1 48C 13.1 48 12 50.4 12 52.8C 12 53.7 10.7 57.3 9.09999 60.7C 7.49999 64.1 6.39999 67.1 6.69999 67.4C 7.99999 68.6 12.8 67.9 14.1 66.3C 14.9 65.4 15.5 62.6 15.4 59.8L 15.4 55L 48.7 55L 82 55L 78.9 60.5C 77.2 63.5 76.1 66 76.5 66C 76.9 66 79.3 64.2 81.7 61.9C 84.1 59.7 87.4 57.4 89.1 56.8L 92 55.8L 88.8 51.8L 85.6 47.7L 83.5 50.4C 81.5 52.9 81 53 71.7 53C 66.4 53 62 52.8 62 52.5C 62 51.1 75.1 34.2 76.9 33.4C 78.6 32.6 78.4 32.2 74.5 29.9L 70.3 27.2L 67.1 35.4z"/>
<path style="stroke:none; fill:#000000" d="M 41.5 33.7C 42.9 36.9 44.4 41.4 45 43.7C 46.2 48.5 48.1 49.2 50.4 45.8C 53.3 41.8 52.4 39 46.5 33.3C 43.5 30.4 40.6 28 40.1 28C 39.6 28 40.2 30.6 41.5 33.7z"/>
<path style="stroke:none; fill:#000000" d="M 21 34.6C 22.6 37.2 24.7 41.5 25.5 44.1C 27.5 49.9 28.5 50.8 31.1 48.4C 35.1 44.7 32.9 39.7 24.4 33.2C 18.6 28.8 17.5 29.2 21 34.6z"/>
</g>
</g>
</svg>