<?xml version="1.0" encoding="UTF-8" standalone="yes"?>
<!-- Created with sK1/UniConvertor (http://sk1project.org/) -->
<svg xmlns="http://www.w3.org/2000/svg" xmlns:xlink="http://www.w3.org/1999/xlink"
  width="100pt" height="129pt" viewBox="0 0 100 129"
  fill-rule="evenodd">
<g>
<g>
<path style="stroke:none; fill:#000000" d="M 46.4 32.4L 47.1 38L 36.5 38C 29.9 38 24.7 37.5 22.7 36.7L 19.5 35.3L 19.5 46.7C 19.5 57.6 19.6 58.1 21.5 57.6C 22.6 57.3 23.8 57 24.3 57C 24.7 57 25 56.3 25 55.5C 25 54.3 26.9 54 36 54L 47 54L 47 59L 47 64.1L 26 63.8C 7.3 63.5 5.2 63.7 6.8 65C 8.3 66.3 14.4 66.5 51.6 66.2L 94.8 65.9L 91.7 62.5L 88.6 59L 86 61.5C 83.4 64 83.1 64 67.2 64L 51 64L 51 59L 51 54L 62 54C 72.3 54 73 54.1 73 56C 73 58.3 73.4 58.4 76.1 57C 77.7 56.1 78 54.8 78 48.8C 78 43.5 78.4 41.2 79.7 39.8C 81.3 38 81.2 37.8 79.2 35.8L 77 33.6L 74.7 35.8C 72.6 37.8 71.3 38 61.7 38C 52.4 38 51 37.8 51 36.3C 51 35.4 51.7 33.9 52.6 32.9C 54.1 31.3 53.9 31 50 29L 45.7 26.8L 46.4 32.4zM 47 46L 47 52L 36 52L 25 52L 25 46L 25 40L 36 40L 47 40L 47 46zM 73 46L 73 52L 62 52L 51 52L 51 46L 51 40L 62 40L 73 40L 73 46z"/>
</g>
</g>
</svg>