<?xml version="1.0" encoding="UTF-8" standalone="yes"?>
<!-- Created with sK1/UniConvertor (http://sk1project.org/) -->
<svg xmlns="http://www.w3.org/2000/svg" xmlns:xlink="http://www.w3.org/1999/xlink"
  width="98pt" height="128pt" viewBox="0 0 98 128"
  fill-rule="evenodd">
<g>
<g>
<path style="stroke:none; fill:#000000" d="M 82.5 85L 79.6 88L 42.6 88C 9.6 88 5.7 88.2 7.1 89.5C 8.4 90.8 14.3 91 51.3 90.8L 94.1 90.5L 89.7 86.2L 85.4 82L 82.5 85z"/>
<path style="stroke:none; fill:#000000" d="M 33.1 94.8C 31.7 97.4 19.8 106.9 12.3 111.4C 8.8 113.5 6 115.5 6 116C 6 117.7 23.1 109.5 31.9 103.6C 34.8 101.6 37.8 100 38.4 100C 41 100 40.9 98.6 38.3 95.8C 35.2 92.5 34.4 92.4 33.1 94.8z"/>
<path style="stroke:none; fill:#000000" d="M 61 95.7C 61 96.2 63.4 97.8 66.2 99.5C 69.1 101.1 74.8 105.8 78.8 109.9C 82.8 113.9 86.3 117 86.6 116.8C 86.8 116.5 87.2 115 87.6 113.4C 88.6 108.1 84.4 104.4 69.2 97.8C 62.5 94.9 61 94.5 61 95.7z"/>
</g>
</g>
</svg>