<?xml version="1.0" encoding="UTF-8" standalone="yes"?>
<!-- Created with sK1/UniConvertor (http://sk1project.org/) -->
<svg xmlns="http://www.w3.org/2000/svg" xmlns:xlink="http://www.w3.org/1999/xlink"
  width="98pt" height="128pt" viewBox="0 0 98 128"
  fill-rule="evenodd">
<g>
<g>
<path style="stroke:none; fill:#000000" d="M 76 34C 75 35.9 73.9 36 44.8 36C 21.2 36 14.9 36.3 15.8 37.2C 16.7 38.1 20.8 38.3 30 38.1L 43 37.8L 43 70.7C 43.1 104.5 43.3 107 47.1 107C 48.3 107 48.5 101.4 48.2 72.5L 47.9 38L 62 38L 76 38L 75.9 52.2C 75.8 72.4 76.2 71.5 66.2 71.5C 61.7 71.5 58 71.8 58 72.2C 58 72.6 60.3 73.9 63 75.1C 65.8 76.3 68.7 78.2 69.5 79.3C 70.9 81.2 70.9 81.2 74.2 79.3C 80 76 81 72.5 81 54.9C 81 42.1 81.3 39 82.5 38C 83.9 36.8 83.8 36.4 81.9 34.3C 79.2 31.5 77.4 31.4 76 34z"/>
</g>
</g>
</svg>