<?xml version="1.0" encoding="UTF-8" standalone="yes"?>
<!-- Created with sK1/UniConvertor (http://sk1project.org/) -->
<svg xmlns="http://www.w3.org/2000/svg" xmlns:xlink="http://www.w3.org/1999/xlink"
  width="98pt" height="128pt" viewBox="0 0 98 128"
  fill-rule="evenodd">
<g>
<g>
<path style="stroke:none; fill:#000000" d="M 19 70L 19 85L 21.5 83.8C 24 82.7 24 82.5 24 71.3L 24 60L 49 60L 74.1 60L 73.8 69.2L 73.5 78.5L 68.6 78.2C 65.3 77.9 64 78.2 64.4 78.9C 64.8 79.5 65.8 80 66.6 80C 67.4 80 69.3 81.2 70.7 82.6L 73.3 85.2L 75.9 83.2C 78.4 81.4 78.5 80.8 78.8 71.2C 79 62 79.3 61.1 81.1 60.5C 83.2 59.8 83.2 59.8 80.9 57.4C 78.3 54.6 76.8 54.4 75 56.5C 73.1 58.7 26.3 58.7 22 56.5L 19 54.9L 19 70z"/>
</g>
</g>
</svg>