<?xml version="1.0" encoding="UTF-8" standalone="yes"?>
<!-- Created with sK1/UniConvertor (http://sk1project.org/) -->
<svg xmlns="http://www.w3.org/2000/svg" xmlns:xlink="http://www.w3.org/1999/xlink"
  width="99pt" height="128pt" viewBox="0 0 99 128"
  fill-rule="evenodd">
<g>
<g>
<path style="stroke:none; fill:#000000" d="M 52 28.4C 52 29.9 56.6 43.2 58.2 46.5C 63.3 56.6 72.5 65.5 83.2 70.5C 86.7 72.2 86.9 72.2 89.5 70.1C 91 69 93 68 93.8 68C 96.6 68 93.7 66.4 87.5 64.6C 81.1 62.6 72.5 58.6 71.6 57.1C 71.1 56.3 78.6 51.2 86 47.5L 89.4 45.7L 86.5 43.4C 84.8 42.1 83.3 41 83 41C 82.7 41.1 81 43.1 79.1 45.6C 77.2 48.1 74.1 51.4 72.2 52.8L 68.7 55.4L 65.8 52C 60.5 45.7 60.5 45.5 65.8 42.2C 68.4 40.5 72.7 38.1 75.3 36.7L 80.2 34.3L 77.1 32.1L 74.1 29.9L 67.5 36.7C 61.2 43.3 60.9 43.4 59.5 41.5C 58.6 40.4 57 36.9 55.8 33.8C 54.7 30.6 53.3 28 52.9 28C 52.4 28 52 28.2 52 28.4z"/>
<path style="stroke:none; fill:#000000" d="M 42.5 33C 40.9 34.8 39.4 35 27.6 35C 17.2 35 14.9 35.2 15.9 36.2C 16.8 37.2 20.4 37.4 29.1 37.1L 41 36.8L 40 39.5C 36.5 48.7 23.3 64.1 12.4 71.6C 9.4 73.7 7.2 75.5 7.4 75.8C 7.7 76 11.1 74.5 15.2 72.4C 24.3 67.6 35.7 56.5 42.4 45.8C 45.1 41.5 48.2 37.8 49.3 37.4C 51.1 36.8 51 36.6 48.4 33.9C 45.1 30.5 44.8 30.4 42.5 33z"/>
<path style="stroke:none; fill:#000000" d="M 17.9 45.5C 19.6 47.5 21.9 50.9 23.1 53.2C 25.1 57.1 25.3 57.3 26.6 55.5C 29.5 51.6 28.4 48.7 22.6 45.2C 15.6 41 14 41.1 17.9 45.5z"/>
</g>
</g>
</svg>