<?xml version="1.0" encoding="UTF-8" standalone="yes"?>
<!-- Created with sK1/UniConvertor (http://sk1project.org/) -->
<svg xmlns="http://www.w3.org/2000/svg" xmlns:xlink="http://www.w3.org/1999/xlink"
  width="99pt" height="128pt" viewBox="0 0 99 128"
  fill-rule="evenodd">
<g>
<g>
<path style="stroke:none; fill:#000000" d="M 38.5 35.7C 38.2 37.8 37 41 35.9 42.8C 33.4 47.2 33.5 48 36.8 48C 39.8 48 42 45 42 41C 42 39.1 42.8 39 62 39L 82 39L 80 43.1C 78.8 45.4 78.1 47.4 78.4 47.8C 78.7 48.1 80.9 46.4 83.2 44.2C 85.5 41.9 88.3 40 89.4 40C 91.2 40 91.1 39.6 88.3 36.8C 85.2 33.8 85 33.7 83.2 35.3C 81.6 36.8 78.7 37 61.2 37L 41 37L 41 34.5C 41 30.7 39.3 31.5 38.5 35.7z"/>
<path style="stroke:none; fill:#000000" d="M 47 49.2C 45.7 51.5 42.2 56.2 39.2 59.8C 36.3 63.3 34 66.3 34.2 66.5C 34.4 66.8 38.2 63.8 42.6 59.9C 46.9 56 51.8 52.2 53.4 51.3L 56.3 49.8L 53.4 47.4C 51.8 46.1 50.2 45.1 49.9 45C 49.6 45 48.3 46.9 47 49.2z"/>
<path style="stroke:none; fill:#000000" d="M 71.3 51.2C 74.6 54 78.3 58.1 79.7 60.3C 82.1 64.1 82.3 64.3 83.6 62.5C 85.6 59.8 85.3 56.7 82.9 54.1C 80.8 51.9 69 46 66.7 46C 66 46 68.1 48.3 71.3 51.2z"/>
</g>
</g>
</svg>