<?xml version="1.0" encoding="UTF-8" standalone="yes"?>
<!-- Created with sK1/UniConvertor (http://sk1project.org/) -->
<svg xmlns="http://www.w3.org/2000/svg" xmlns:xlink="http://www.w3.org/1999/xlink"
  width="99pt" height="128pt" viewBox="0 0 99 128"
  fill-rule="evenodd">
<g>
<g>
<path style="stroke:none; fill:#000000" d="M 30 30.6L 30 35L 19.9 35C 11.4 35 9.9 35.2 10.9 36.4C 11.8 37.4 14.1 37.6 21 37.2L 30 36.7L 30 40.4L 30 44L 22.3 44C 15.9 44 14.8 44.2 16 45.3C 17.2 46.3 21.2 46.5 33.8 46.1L 50.1 45.5L 47.2 42.7C 44.4 40 44.3 40 42.5 42C 41.5 43.1 39.4 44 37.8 44C 35.3 44 35 43.7 35 40.5L 35 37L 44.7 37L 54.4 37L 51.5 34L 48.6 31L 46.5 33C 43.7 35.6 35 35.9 35 33.4C 35 32.5 35.7 31.2 36.5 30.6C 37.7 29.7 37.3 29.2 34 27.8L 30 26.1L 30 30.6z"/>
<path style="stroke:none; fill:#000000" d="M 59 35C 59 42.2 57.4 47.8 54.3 51.2C 51.9 53.9 53.3 54.3 56.4 51.9C 58.1 50.6 59.7 50.1 60.8 50.5C 61.7 50.9 66.1 51.2 70.5 51.1L 78.5 50.9L 75 54C 71.3 57.3 72.2 57.2 59.5 55.5C 56 55.1 56.4 55.3 61.9 57.3L 68.2 59.6L 63.4 62.2C 60.7 63.7 55.2 65.9 51.3 67.3C 47.3 68.6 44.3 70 44.6 70.3C 45.5 71.2 58.9 67.2 65.8 64L 72.1 61L 77.8 63.9C 80.9 65.5 85.3 68 87.4 69.5C 91.5 72.3 93.3 71.7 92.2 67.8C 91.6 65.3 87.4 62.7 80.3 60.5L 74.9 58.8L 78.2 55.9C 80 54.3 82.5 52.8 83.8 52.4C 86.6 51.6 86.6 50.9 83.7 48.1C 81.6 46.2 81.2 46.1 80 47.5C 79 48.6 76.6 49 69.4 49L 59.9 49L 61.5 45.9C 62.4 44.3 63.4 40.7 63.7 37.9L 64.3 33L 69.6 33L 75 33L 75 38.4C 75 44.8 75.3 45 85.5 45C 93.1 45 94.5 44.4 93 42C 92.3 40.9 90.5 40.6 86 40.8L 80 41.2L 80 37.1C 80 34.8 80.5 33 81 33C 82.8 33 82 31.3 79.4 29.5C 77.1 28 76.7 28 75.1 29.4C 72.9 31.4 65.8 31.5 62 29.5L 59 27.9L 59 35z"/>
<path style="stroke:none; fill:#000000" d="M 15 55.9C 15 65.4 12.3 74.9 7.9 80.9C 3.8 86.6 5 87.3 10 82.1C 14.1 77.8 19 69.3 19 66.5C 19 65.2 20.9 65 31.4 65C 41.2 65 43.9 65.3 44.2 66.4C 44.4 67.4 45.1 67.5 46.8 66.9C 48.8 66.2 49 65.4 49 59.5C 49 55.8 49.4 53 50 53C 51.9 53 51 51.1 48.4 49.3C 45.9 47.7 45.7 47.7 44.5 49.3C 42.8 51.7 22.4 51.8 18 49.5L 15 47.9L 15 55.9zM 29 58L 29 63L 24.5 63L 20 63L 20 58L 20 53L 24.5 53L 29 53L 29 58zM 44 58L 44 63L 39 63L 34 63L 34 58L 34 53L 39 53L 44 53L 44 58z"/>
</g>
</g>
</svg>