<?xml version="1.0" encoding="UTF-8" standalone="yes"?>
<!-- Created with sK1/UniConvertor (http://sk1project.org/) -->
<svg xmlns="http://www.w3.org/2000/svg" xmlns:xlink="http://www.w3.org/1999/xlink"
  width="99pt" height="127pt" viewBox="0 0 99 127"
  fill-rule="evenodd">
<g>
<g>
<path style="stroke:none; fill:#000000" d="M 25.7 29.9C 23.5 36.3 15.1 48.9 8.8 55.6C 6 58.6 3.9 61.3 4.2 61.5C 5.3 62.6 17 52.7 22.1 46.5L 27.3 40L 58.4 40L 89.5 40L 85.3 35.8L 81 31.6L 77.7 34.8L 74.4 38L 51.7 38C 39.2 38 29 37.8 29 37.5C 29 36 33.6 31 34.9 31C 36.2 30.9 36.1 30.6 34.5 29.4C 33.4 28.5 31.4 27.2 30 26.5C 27.5 25.2 27.4 25.3 25.7 29.9z"/>
</g>
</g>
</svg>