<?xml version="1.0" encoding="UTF-8" standalone="yes"?>
<!-- Created with sK1/UniConvertor (http://sk1project.org/) -->
<svg xmlns="http://www.w3.org/2000/svg" xmlns:xlink="http://www.w3.org/1999/xlink"
  width="99pt" height="130pt" viewBox="0 0 99 130"
  fill-rule="evenodd">
<g>
<g>
<path style="stroke:none; fill:#000000" d="M 15.8 31C 15.4 31.8 14.6 34.3 14 36.5C 13.3 38.7 11.7 42.4 10.4 44.7C 9.1 47 8 49.1 8 49.4C 8 50.7 14.8 49.9 16 48.5C 16.7 47.6 17.5 44.7 17.8 42L 18.3 37L 49.6 37L 80.9 37L 78.4 42.5C 77.1 45.6 76 48.3 76 48.7C 76 49 78.4 47 81.4 44.2C 84.4 41.4 87.9 38.8 89.3 38.5L 91.9 37.8L 88.2 33.8L 84.5 29.8L 82.5 32.4L 80.4 35L 48.8 35L 17.1 35L 16.8 32.2C 16.5 30.4 16.2 30 15.8 31z"/>
</g>
</g>
</svg>