<?xml version="1.0" encoding="UTF-8" standalone="yes"?>
<!-- Created with sK1/UniConvertor (http://sk1project.org/) -->
<svg xmlns="http://www.w3.org/2000/svg" xmlns:xlink="http://www.w3.org/1999/xlink"
  width="99pt" height="129pt" viewBox="0 0 99 129"
  fill-rule="evenodd">
<g>
<g>
<path style="stroke:none; fill:#000000" d="M 78.2 32.1C 77 33.9 75.5 34 46.3 34C 23.4 34 15.9 34.3 16.7 35.1C 17.5 35.9 26.6 36.2 47.9 36.1L 78 35.9L 78 70.4C 78 99.8 77.8 105.1 76.5 106.4C 75.3 107.6 73.5 107.8 68 107.3C 63.1 106.9 61 107 61 107.9C 61 108.5 61.7 109 62.5 109C 65 109 72.3 113 74.2 115.3C 75.8 117.4 75.8 117.4 79.4 113.8L 83 110.2L 83 73.6C 83 41.5 83.2 36.9 84.5 36.3C 85.9 35.8 85.9 35.5 84.3 33.8C 81.3 30.4 79.5 29.9 78.2 32.1z"/>
</g>
</g>
</svg>