<?xml version="1.0" encoding="UTF-8" standalone="yes"?>
<!-- Created with sK1/UniConvertor (http://sk1project.org/) -->
<svg xmlns="http://www.w3.org/2000/svg" xmlns:xlink="http://www.w3.org/1999/xlink"
  width="98pt" height="128pt" viewBox="0 0 98 128"
  fill-rule="evenodd">
<g>
<g>
<path style="stroke:none; fill:#000000" d="M 56 28C 56 29.1 55.3 32.7 54.3 36L 52.7 42L 48.8 42C 46.6 42 43.6 41.3 42 40.5L 39 38.9L 39 71.1C 39 100 39.2 103.2 40.6 102.6C 41.5 102.3 42.6 102 43.1 102C 43.6 102 44 100.6 44 99L 44 96L 61 96L 78 96L 78 99C 78 101.8 78.1 101.9 80.5 100.8C 82.9 99.7 83 99.4 83 89.7C 83 82 83.4 79.3 84.6 77.9C 86 76.4 85.8 76 82.9 73.9L 79.7 71.6L 78.2 73.8C 76.8 75.9 76.1 76 60.4 76L 44 76L 44 69L 44 62L 59 62C 73.3 62 74 62.1 74 64C 74 66.3 74.4 66.4 77.1 65C 78.8 64.1 79 62.8 79 54.5C 79 46.6 79.3 44.9 80.8 44.1C 82.3 43.2 82.2 42.8 79.5 40.6C 76.5 38.2 76.5 38.2 74.4 40.1C 72.7 41.7 70.9 42 63.1 42L 53.9 42L 57.2 37.4C 59 34.8 61.3 32.2 62.4 31.5C 64.1 30.3 63.9 30 60.1 28.1L 56 26L 56 28zM 74 52L 74 60L 59 60L 44 60L 44 52L 44 44L 59 44L 74 44L 74 52zM 78 86L 78 94L 61 94L 44 94L 44 86L 44 78L 61 78L 78 78L 78 86z"/>
</g>
</g>
</svg>