<?xml version="1.0" encoding="UTF-8" standalone="yes"?>
<!-- Created with sK1/UniConvertor (http://sk1project.org/) -->
<svg xmlns="http://www.w3.org/2000/svg" xmlns:xlink="http://www.w3.org/1999/xlink"
  width="99pt" height="128pt" viewBox="0 0 99 128"
  fill-rule="evenodd">
<g>
<g>
<path style="stroke:none; fill:#000000" d="M 81.5 69C 79.8 70.9 78.4 71 50.8 71L 21.9 71L 24.7 73.4C 27.1 75.5 27.7 75.7 29.1 74.4C 30.4 73.3 35.5 73 55.7 73L 80.8 73L 80.3 77.2C 78.8 90.5 76.9 101.3 75.6 104.4C 73.7 109 70.8 109.7 62 107.5C 58.1 106.5 54.7 106 54.4 106.3C 54.1 106.6 55.5 107.8 57.7 108.8C 62.4 111.3 66 114.6 66 116.6C 66 119.4 75.7 115.7 78.5 111.8C 80.9 108.3 82.8 100.7 84.6 87C 85.5 79.7 86.7 73.8 87.6 72.9C 88.8 71.5 88.7 71.1 86.7 69.2C 83.9 66.5 83.8 66.5 81.5 69z"/>
<path style="stroke:none; fill:#000000" d="M 64.5 86.5L 61.5 88.9L 34 89C 11.9 89 6.9 89.2 8 90.2C 9.2 91.2 17.2 91.4 42.4 91.2L 75.3 90.9L 72 87.5C 70.1 85.6 68.4 84 68.1 84C 67.7 84 66.2 85.1 64.5 86.5z"/>
</g>
</g>
</svg>