<?xml version="1.0" encoding="UTF-8" standalone="yes"?>
<!-- Created with sK1/UniConvertor (http://sk1project.org/) -->
<svg xmlns="http://www.w3.org/2000/svg" xmlns:xlink="http://www.w3.org/1999/xlink"
  width="99pt" height="127pt" viewBox="0 0 99 127"
  fill-rule="evenodd">
<g>
<g>
<path style="stroke:none; fill:#000000" d="M 44.5 30.3C 45.9 32.7 47 35.6 47 36.8C 47 39 46.7 39 31 39C 15.7 39 15 38.9 15 37C 15 33.6 13.4 34.8 11.6 39.3C 10.7 41.7 8.8 44.7 7.5 46C 4.5 48.9 4.4 49.7 7 50.5C 10.1 51.5 13.7 48.7 14.4 44.6L 15.1 41L 49.1 41L 83 41L 81.5 44.6C 79.2 50.2 79.7 50.7 83.8 46.8C 85.8 44.7 88.5 42.7 89.6 42.3C 91.8 41.5 91.8 41.5 88.9 38.1L 86 34.6L 83.7 36.8C 81.5 38.9 80.5 39 65.7 39L 50 39L 51.5 36.6C 53.7 33.4 52.2 30.7 47 28C 44.8 26.9 42.8 26 42.5 26C 42.2 26 43.1 28 44.5 30.3z"/>
<path style="stroke:none; fill:#000000" d="M 32.8 48.7L 33.2 54L 22.9 54C 14.9 54 12.9 54.3 13.8 55.2C 14.6 56 18 56.3 24 56.1L 33 55.8L 33 60.9L 33 66L 23.8 66C 16.6 66 14.9 66.3 15.8 67.2C 16.6 68 19.7 68.3 25 68.1L 33 67.8L 33 72.9L 33 78L 18.8 78C 8 78 4.9 78.3 5.8 79.2C 6.6 80 11 80.3 19.5 80.1C 27.1 79.9 32 80.2 32 80.8C 32 81.4 30 84.5 27.4 87.9C 22.7 94.2 15.6 100.4 8.1 104.8C 1.4 108.7 4.9 108.6 12.8 104.6C 21.8 100 30.5 92.8 35.4 85.7L 39.3 80L 48.4 80L 57.5 80L 59.9 84.4C 63.2 90.7 70.1 97.4 77.7 101.6L 84.1 105.2L 86.3 103.3C 87.5 102.2 89.4 100.8 90.5 100.2C 92.8 99 92.6 98.9 84.6 97C 76.8 95.2 69.8 91.5 64.7 86.3C 62.1 83.8 60 81.3 60 80.8C 60 80.4 67.4 80 76.5 80L 92.9 80L 88.7 76.1L 84.5 72.1L 81.5 75.1C 78.6 77.8 77.9 78 70.2 78L 62 78L 62 73L 62 68L 71.5 68L 81.1 68L 77.5 64.9L 73.9 61.7L 71.6 63.9C 70.2 65.2 68.1 66 65.7 66L 62 66L 62 61L 62 56L 71.2 56L 80.4 56L 77 52.5L 73.6 49L 71 51.5C 69.3 53.1 67.2 54 65.2 54C 62.4 54 62 53.7 62 51.2C 62 49.7 62.5 47.9 63.2 47.2C 64 46.4 63.7 45.8 61.6 45C 57.3 43.4 57 43.7 57 49L 57 54L 47.5 54L 38 54L 38 51.2C 38 49.7 38.4 48 38.9 47.4C 39.5 46.9 38.5 45.9 36.1 44.9L 32.4 43.3L 32.8 48.7zM 57 61L 57 66L 47.5 66L 38 66L 38 61L 38 56L 47.5 56L 57 56L 57 61zM 57 73L 57 78L 47.5 78L 38 78L 38 73L 38 68L 47.5 68L 57 68L 57 73z"/>
</g>
</g>
</svg>