<?xml version="1.0" encoding="UTF-8" standalone="yes"?>
<!-- Created with sK1/UniConvertor (http://sk1project.org/) -->
<svg xmlns="http://www.w3.org/2000/svg" xmlns:xlink="http://www.w3.org/1999/xlink"
  width="99pt" height="130pt" viewBox="0 0 99 130"
  fill-rule="evenodd">
<g>
<g>
<path style="stroke:none; fill:#000000" d="M 84.5 69L 81.6 72L 43.1 72C 12.3 72 4.9 72.2 5.9 73.2C 6.7 74.1 9.8 74.4 16.1 74.1L 25.1 73.8L 24.9 92.7C 24.7 107.4 25 112 26.1 113.8C 27.9 116.7 28.6 116.6 32.6 113.1C 34.4 111.5 39.2 108.2 43.2 105.9C 52 100.8 51.5 101.1 50.8 100.4C 50.5 100.1 46.3 101.5 41.4 103.4C 36.6 105.4 32 107 31.3 107C 30.3 107 30 103.4 30 90.5L 30 73.9L 36.6 74.2L 43.2 74.5L 45.3 80C 47.6 86.5 54.5 97.4 58.6 101.2C 63.1 105.3 72.6 110.7 79.6 113L 86 115.2L 89.1 112.6C 90.8 111.2 92.8 110 93.6 110C 94.4 110 95 109.6 95 109.1C 95 108.6 92.4 107.9 89.3 107.5C 78 106.1 65 100.9 60.6 96.1C 59 94.3 59.3 94.1 68.3 90.1C 73.4 87.9 79.3 85.7 81.3 85.3L 85 84.5L 82.4 80.8L 79.7 77L 76.1 80.2C 74.1 82 69.1 85.5 65 88.2L 57.6 93L 54.8 90.3C 53.3 88.9 50.5 84.6 48.5 80.9L 44.9 74L 70.6 74L 96.4 74L 92.5 70C 90.4 67.8 88.3 66 88 66C 87.6 66 86.1 67.3 84.5 69z"/>
</g>
</g>
</svg>