<?xml version="1.0" encoding="UTF-8" standalone="yes"?>
<!-- Created with sK1/UniConvertor (http://sk1project.org/) -->
<svg xmlns="http://www.w3.org/2000/svg" xmlns:xlink="http://www.w3.org/1999/xlink"
  width="98pt" height="127pt" viewBox="0 0 98 127"
  fill-rule="evenodd">
<g>
<g>
<path style="stroke:none; fill:#000000" d="M 56.9 32.5L 55.7 40L 43.2 40C 33.9 40 30.9 40.3 31.7 41.1C 32.4 41.8 36.9 42.2 44 42.1C 54.3 41.9 55.1 42 54.6 43.7C 54.3 44.7 53.8 46.7 53.4 48.2C 52.8 50.8 52.4 51 47.8 51C 45.1 51 41.6 50.3 40 49.5L 37 47.9L 37 62.1C 37 74.6 37.2 76.1 38.6 75.6C 39.5 75.3 40.6 75 41.1 75C 41.6 75 42 74.3 42 73.5C 42 72.2 44.7 72 59.9 72C 72.4 72 77.9 72.3 78.2 73.1C 78.4 73.8 79.5 74 80.8 73.6C 82.9 72.9 83 72.3 83 63.8C 83 57.1 83.4 54.2 84.5 53C 85.8 51.5 85.7 51.1 83 49.2C 80 47 80 47 78.8 49C 77.6 50.8 76.5 51 67.3 51C 61.6 51 57 50.6 57 50.1C 57 49.6 57.7 47.6 58.5 45.6L 60 42L 75.5 42L 91 42L 87.2 38.6L 83.5 35.1L 80.9 37.6C 78.5 39.9 77.7 40.1 69.2 39.8L 60.1 39.5L 62.1 35C 63.2 32.6 64.6 30.2 65.2 29.9C 65.8 29.5 64.6 28.3 62.2 27.1L 58.1 25L 56.9 32.5zM 51 61.5L 51 70L 46.5 70L 42 70L 42 61.5L 42 53L 46.5 53L 51 53L 51 61.5zM 64 61.5L 64 70L 60 70L 56 70L 56 61.5L 56 53L 60 53L 64 53L 64 61.5zM 78 61.5L 78 70L 73.5 70L 69 70L 69 61.5L 69 53L 73.5 53L 78 53L 78 61.5z"/>
<path style="stroke:none; fill:#000000" d="M 83 78.5L 80.7 81L 53.6 81C 31.9 81 26.9 81.2 28 82.2C 29.2 83.2 36.7 83.4 61 83L 92.5 82.5L 88.9 79.3L 85.3 76L 83 78.5z"/>
<path style="stroke:none; fill:#000000" d="M 57.5 89.7C 58.8 91.8 60.4 95 61.1 96.7C 62.4 100.4 64.4 101 66 98C 67.7 94.9 66.4 92.3 61.5 89C 55.7 85 54.5 85.2 57.5 89.7z"/>
<path style="stroke:none; fill:#000000" d="M 44 99.6C 44.6 114.5 44.1 114 61.6 114C 72.9 114 75.1 113.7 77.1 112.2C 79.4 110.3 79.3 110 76.5 105C 75.7 103.6 75 101 75 99.2C 75 97.5 74.6 96 74 96C 73.5 96 73 98.2 73 100.8C 73 108.6 72.2 109.1 60 108.8L 49.5 108.5L 49.2 100.7C 49 95.9 49.3 93 50 93C 52.1 93 50.9 91.3 47.5 89.7C 45.5 88.8 43.8 88 43.7 88C 43.6 88 43.7 93.2 44 99.6z"/>
<path style="stroke:none; fill:#000000" d="M 78 90.6C 78 90.9 79.1 92.6 80.4 94.3C 81.7 96.1 83.8 99.5 85 102L 87.2 106.4L 89.1 104.1C 91.6 101 91.5 99.8 88.3 96.8C 83.3 92.3 78 89 78 90.6z"/>
<path style="stroke:none; fill:#000000" d="M 34.9 91.5C 34.6 92 34 93.8 33.6 95.5C 33.2 97.1 31.5 100.2 29.9 102.3C 26.6 106.3 26.4 109.3 29.3 109.8C 31.9 110.3 34.8 107.3 35.5 103.6C 36.3 99.8 35.7 90.1 34.9 91.5z"/>
</g>
</g>
</svg>