<?xml version="1.0" encoding="UTF-8" standalone="yes"?>
<!-- Created with sK1/UniConvertor (http://sk1project.org/) -->
<svg xmlns="http://www.w3.org/2000/svg" xmlns:xlink="http://www.w3.org/1999/xlink"
  width="99pt" height="129pt" viewBox="0 0 99 129"
  fill-rule="evenodd">
<g>
<g>
<path style="stroke:none; fill:#000000" d="M 27.5 32L 28.2 39L 16.9 39C 8.1 39.1 5.9 39.3 7.4 40.2C 8.5 40.8 13.3 41.2 18.6 41.1L 28 40.9L 28 46.9L 28 53L 23.6 53C 21.2 53 17.7 52.4 15.9 51.6L 12.5 50.2L 12.5 68.6C 12.5 78.7 12.6 87 12.7 87C 14.5 87 18 84.2 18 82.8C 18 81.3 18.8 81 23 81L 28 81L 28 87L 28 93L 15.3 93C 5.3 93 2.9 93.3 3.8 94.2C 4.7 95.1 8.5 95.4 16.7 95.1L 28.3 94.8L 27.6 105.9L 27 117.1L 30 115.5L 33 113.9L 33 104.5L 33 95L 43.2 95L 53.5 95L 50.3 91.8L 47.1 88.6L 44.7 90.8C 43 92.4 41.1 93 37.7 93L 33 93L 33 87L 33 81L 37.5 81C 41.3 81 42 81.3 42 83C 42 84.7 42.3 84.8 44.5 83.8C 47 82.7 47 82.6 47 69.4C 47 58.2 47.3 56 48.6 55.2C 50 54.4 49.8 54 47.5 52.2C 44.2 49.6 43.6 49.5 42 51.5C 41.3 52.4 39.1 53 36.9 53L 33 53L 33 47L 33 41L 44 41L 55.1 41L 51.5 37.9L 47.9 34.7L 45.6 36.9C 43.9 38.5 42.1 39 38.2 39L 33 39L 33 35C 33 32.6 33.6 30.8 34.5 30.3C 35.7 29.6 34.9 28.9 31.4 27.2L 26.8 24.9L 27.5 32zM 42 60.5L 42 66L 30 66L 18 66L 18 60.5L 18 55L 30 55L 42 55L 42 60.5zM 42 73.5L 42 79L 30 79L 18 79L 18 73.5L 18 68L 30 68L 42 68L 42 73.5z"/>
</g>
</g>
</svg>