<?xml version="1.0" encoding="UTF-8" standalone="yes"?>
<!-- Created with sK1/UniConvertor (http://sk1project.org/) -->
<svg xmlns="http://www.w3.org/2000/svg" xmlns:xlink="http://www.w3.org/1999/xlink"
  width="98pt" height="128pt" viewBox="0 0 98 128"
  fill-rule="evenodd">
<g>
<g>
<path style="stroke:none; fill:#000000" d="M 46 37L 46 47L 27.8 47C 13.6 47 9.9 47.3 10.8 48.2C 11.7 49.1 16.7 49.3 29 49.1L 46 48.8L 46 58.9L 46 69L 24.3 69C 7.6 69 2.9 69.3 3.8 70.2C 4.6 71 10.7 71.3 25.5 71.1L 46 70.8L 46 89.9L 46 109L 48.5 109L 51 109L 51 90L 51 71L 73.2 71L 95.5 71L 91.8 67.3L 88 63.6L 85.2 66.3L 82.4 69L 66.7 69L 51 69L 51 59L 51 49L 69.2 49L 87.4 49L 84 45.5L 80.6 42L 78 44.5C 75.5 46.9 74.8 47 63.2 47L 51 47L 51 40.6C 51 35.1 51.3 33.9 53.1 32.6C 55.2 31.2 55.1 31.1 51.2 29.1C 48.9 27.9 46.8 27 46.5 27C 46.2 27 46 31.5 46 37z"/>
</g>
</g>
</svg>