<?xml version="1.0" encoding="UTF-8" standalone="yes"?>
<!-- Created with sK1/UniConvertor (http://sk1project.org/) -->
<svg xmlns="http://www.w3.org/2000/svg" xmlns:xlink="http://www.w3.org/1999/xlink"
  width="98pt" height="128pt" viewBox="0 0 98 128"
  fill-rule="evenodd">
<g>
<g>
<path style="stroke:none; fill:#000000" d="M 27.7 34.8C 27.3 39 26.8 48.1 26.4 55C 25.9 64.7 25.4 67.8 24.1 68.7C 22.7 69.8 22.8 70.2 25.5 72.4C 28.5 74.9 28.5 74.9 30.2 73C 31.7 71.1 33.2 71 54.9 71L 78 71L 78 76.3C 78 85 76 98.2 74 102.7C 72.7 105.7 71.4 107.1 69.5 107.6C 66.8 108.3 57.5 107.5 54.6 106.4C 53.7 106.1 53 106.3 53 106.8C 53 107.4 55.5 109 58.6 110.4C 62.1 112 64.4 113.7 64.7 115C 65.1 116.6 65.8 116.9 67.4 116.4C 78.1 113.1 81 107.3 83.1 85C 83.9 76.6 84.8 71.9 85.8 70.7C 87.2 69.1 87.2 68.8 85.4 67.5C 81.1 64.1 80.4 64 79 66.5L 77.7 69L 54.2 69L 30.8 69L 31.4 66.7C 31.7 65.5 32 61.2 32 57.2L 32 50L 61.5 50L 91 50L 87.2 46.6L 83.5 43.1L 80.9 45.6C 78.4 48 78.4 48 55.7 48L 33 48L 33 40.9C 33 35.3 33.4 33.4 34.7 32.5C 36.2 31.4 35.9 31 32.3 29.2L 28.3 27.1L 27.7 34.8z"/>
</g>
</g>
</svg>