<?xml version="1.0" encoding="UTF-8" standalone="yes"?>
<!-- Created with sK1/UniConvertor (http://sk1project.org/) -->
<svg xmlns="http://www.w3.org/2000/svg" xmlns:xlink="http://www.w3.org/1999/xlink"
  width="98pt" height="129pt" viewBox="0 0 98 129"
  fill-rule="evenodd">
<g>
<g>
<path style="stroke:none; fill:#000000" d="M 20 39.5L 20 51L 11.8 51C 5.3 51 3.9 51.3 4.8 52.2C 5.6 53 8.5 53.4 13 53.1L 20 52.8L 20 62.8L 20 72.8L 14.2 74.8C 11.1 76 7.3 77.2 5.8 77.6L 3 78.2L 5.2 81.4C 6.4 83.1 7.5 84.7 7.6 84.9C 7.8 85.1 9.3 84.1 11.1 82.6C 12.8 81.1 15.5 79.3 17.1 78.4L 20.1 76.9L 19.8 92.7L 19.5 108.5L 12.3 108.2C 8.3 108.1 5 108.2 5 108.5C 5 108.8 6.8 109.7 9 110.6C 11.2 111.5 14.1 113.6 15.4 115.2L 17.8 118.3L 21.4 114.9L 25.1 111.5L 25 93.3L 25 75.2L 32.7 70.9C 41.7 65.9 41.2 64.9 31.7 68.5L 25 71L 25 62L 25 53L 33.2 53L 41.4 53L 38.5 50C 35.1 46.5 33.9 46.3 31.5 49C 30.5 50.1 28.6 51 27.3 51C 25.1 51 25 50.7 25 43.1C 25 36.3 25.3 34.9 27 33.7C 28.8 32.4 28.7 32.2 24.5 30.2L 20 28L 20 39.5z"/>
</g>
</g>
</svg>