<?xml version="1.0" encoding="UTF-8" standalone="yes"?>
<!-- Created with sK1/UniConvertor (http://sk1project.org/) -->
<svg xmlns="http://www.w3.org/2000/svg" xmlns:xlink="http://www.w3.org/1999/xlink"
  width="99pt" height="128pt" viewBox="0 0 99 128"
  fill-rule="evenodd">
<g>
<g>
<path style="stroke:none; fill:#000000" d="M 45 32.9L 45 40L 25.8 40C 10.8 40 6.9 40.3 7.8 41.2C 8.7 42.1 14 42.3 27 42.1L 45 41.8L 45 45.9L 45 50L 30.3 50C 18.9 50 15.9 50.3 16.8 51.2C 17.7 52.1 22 52.3 31.5 52.1L 45 51.8L 45 57L 45 62.1L 24.5 61.8C 6.2 61.5 4.2 61.7 5.8 63C 7.3 64.3 13.3 64.4 51.3 64L 95.1 63.5L 91.2 59.7L 87.4 56L 84.5 59L 81.6 62L 66.3 62L 51 62L 51 57L 51 52L 67.2 52L 83.4 52L 80 48.5L 76.6 45L 74 47.5C 71.6 49.8 70.7 50 61.2 50L 51 50L 51 46L 51 42L 70.3 42L 89.7 42L 85.8 37.8L 82 33.6L 78.7 36.8L 75.4 40L 63.2 40L 51 40L 51 36C 51 33.3 51.5 31.8 52.8 31.1C 54.3 30.3 53.9 29.9 50.5 28.5C 48.3 27.5 46.2 26.6 45.8 26.3C 45.3 26.1 45 29.1 45 32.9z"/>
</g>
</g>
</svg>