<?xml version="1.0" encoding="UTF-8" standalone="yes"?>
<!-- Created with sK1/UniConvertor (http://sk1project.org/) -->
<svg xmlns="http://www.w3.org/2000/svg" xmlns:xlink="http://www.w3.org/1999/xlink"
  width="98pt" height="128pt" viewBox="0 0 98 128"
  fill-rule="evenodd">
<g>
<g>
<path style="stroke:none; fill:#000000" d="M 79.7 51.8L 80.3 76.6L 69.2 79.7L 58 82.7L 58 63.1C 58 49.9 58.4 43 59.1 42.3C 59.9 41.5 59.2 40.6 56.2 39.1L 52.1 37L 51.8 61.3C 51.5 83.5 51.7 85.7 53.4 88.3C 55 90.9 55.4 91 56.9 89.6C 58.8 87.9 77.2 79 78.8 79C 79.6 79 79.8 84.3 79.3 98L 78.7 116.9L 81.8 115.8L 85 114.6L 85 74C 85 45.4 85.3 33.1 86.1 32.3C 86.9 31.5 86.2 30.6 83.2 29.1L 79.1 27L 79.7 51.8z"/>
</g>
</g>
</svg>