<?xml version="1.0" encoding="UTF-8" standalone="yes"?>
<!-- Created with sK1/UniConvertor (http://sk1project.org/) -->
<svg xmlns="http://www.w3.org/2000/svg" xmlns:xlink="http://www.w3.org/1999/xlink"
  width="99pt" height="128pt" viewBox="0 0 99 128"
  fill-rule="evenodd">
<g>
<g>
<path style="stroke:none; fill:#000000" d="M 47 32.1L 47 39L 32.8 39C 21.4 39 18.9 39.2 19.9 40.2C 20.8 41.2 24.6 41.4 34.1 41.1L 47 40.8L 47 46.9L 47 53L 32.5 53L 18 53L 18 50.5C 18 46.8 16.5 47.5 15.2 51.9C 14.5 54 12.2 57.7 10 60.2C 7.9 62.7 6.4 65 6.7 65.4C 7.8 66.5 13.6 66 15.4 64.7C 16.3 64 17.4 61.5 17.7 59.2L 18.3 55L 50.6 55C 68.4 55 83 55.2 83 55.5C 83 55.8 81.9 58.3 80.5 61C 77.5 66.9 78.3 67.3 83.1 62.4C 84.9 60.4 88.2 58 90.2 57L 93.9 55.3L 90.5 52L 87 48.6L 84.7 50.8C 82.5 52.9 81.4 53 67.7 53L 53 53L 53 47L 53 41L 68.2 41L 83.5 41L 79.8 37.3L 76 33.6L 73.2 36.3C 70.6 38.8 69.8 39 61.7 39L 53 39L 53 35.6C 53 33.3 53.7 31.8 55.1 30.8C 57.2 29.4 57.1 29.3 52.1 27.3L 47 25.1L 47 32.1z"/>
</g>
</g>
</svg>