<?xml version="1.0" encoding="UTF-8" standalone="yes"?>
<!-- Created with sK1/UniConvertor (http://sk1project.org/) -->
<svg xmlns="http://www.w3.org/2000/svg" xmlns:xlink="http://www.w3.org/1999/xlink"
  width="99pt" height="129pt" viewBox="0 0 99 129"
  fill-rule="evenodd">
<g>
<g>
<path style="stroke:none; fill:#000000" d="M 53 36.3C 49.5 47.6 44.6 58.6 39.9 66.2C 38.3 69 37.1 71.4 37.3 71.7C 38 72.3 44.8 64.1 47.8 59L 50.4 54.6L 52.2 63.5C 54.2 73.7 57.3 83.6 60.2 89.4L 62.2 93.2L 56.9 98.2C 50.9 103.8 41.3 109.7 32.5 113.1C 25.6 115.8 25.5 115.8 26.2 116.5C 27.1 117.4 40.1 113 47.7 109.2C 51.7 107.3 57.2 103.7 60 101.3L 65 96.8L 70.8 102.8C 79.4 111.4 88 117.1 88 113.9C 88 113.4 89.7 112.2 91.7 111.4C 94.5 110.2 95 109.6 93.9 108.9C 93.1 108.4 91.8 108 91 108C 87.7 107.9 78.6 102.8 73.6 98.1L 68.3 93L 72.1 85.6C 76 77.9 78.6 68.2 79.8 57L 80.5 50.5L 87.2 50.2L 93.9 49.9L 90.2 46.5L 86.5 43.1L 83.9 45.6C 81.4 48 81 48.1 67.8 47.8L 54.2 47.5L 57.7 39.7C 59.7 35.5 61.9 32 62.6 32C 65.1 32 64.1 30.6 60.1 28.3L 56.2 26.1L 53 36.3zM 75 51.2C 74.9 61.3 67.7 88 65 88C 64.2 88 59.4 78.4 57.4 72.7C 55 66 51.9 52 52.5 51C 53.5 49.4 75 49.7 75 51.2z"/>
</g>
</g>
</svg>