<?xml version="1.0" encoding="UTF-8" standalone="yes"?>
<!-- Created with sK1/UniConvertor (http://sk1project.org/) -->
<svg xmlns="http://www.w3.org/2000/svg" xmlns:xlink="http://www.w3.org/1999/xlink"
  width="98pt" height="128pt" viewBox="0 0 98 128"
  fill-rule="evenodd">
<g>
<g>
<path style="stroke:none; fill:#000000" d="M 44.8 32C 43.6 33.9 42.4 34 25.6 34C 10.3 34 7.9 34.2 9.5 35.3C 10.7 36.3 13.4 36.5 18.6 36.2L 26 35.7L 26 45.4L 26 55L 17.9 55C 11.1 55 9.9 55.2 10.9 56.4C 11.7 57.4 13.8 57.6 19.2 57.2L 26.3 56.7L 25.7 63C 25.3 66.5 25 70.6 25 72.1L 25 75L 16.4 75C 9 75 7.9 75.2 8.9 76.4C 9.9 77.5 11.7 77.7 17.2 77.3L 24.3 76.7L 23.6 81.1C 22.3 89.6 16.6 99.7 7.4 109.9C 0.299996 117.8 5.7 114.5 14.5 105.6C 21.9 98.1 26.1 90.8 28.2 82.1L 29.3 77L 36.7 77L 44 77L 44 87.8C 44 94.9 43.6 99 42.8 99.8C 42.1 100.5 38.5 101 34 101.1L 26.5 101.1L 30.6 103C 32.8 104 35.7 106.1 36.9 107.6C 39 110.3 39.3 110.4 41.8 108.9C 43.3 108.1 45.5 105.9 46.7 104.1C 49 100.7 49 100.3 49 68.9C 49 38.4 49.1 37.1 51 35.7C 52.9 34.4 52.9 34.3 50 32.2C 46.4 29.5 46.3 29.5 44.8 32zM 44 45.5L 44 55L 37.5 55L 31 55L 31 45.5L 31 36L 37.5 36L 44 36L 44 45.5zM 44 66L 44 75L 37 75L 30 75L 30 69.7C 30 66.9 30.3 62.8 30.6 60.7L 31.3 57L 37.6 57L 44 57L 44 66z"/>
</g>
</g>
</svg>