<?xml version="1.0" encoding="UTF-8" standalone="yes"?>
<!-- Created with sK1/UniConvertor (http://sk1project.org/) -->
<svg xmlns="http://www.w3.org/2000/svg" xmlns:xlink="http://www.w3.org/1999/xlink"
  width="99pt" height="129pt" viewBox="0 0 99 129"
  fill-rule="evenodd">
<g>
<g>
<path style="stroke:none; fill:#000000" d="M 34 84.9C 30.1 92.1 19.6 105.5 13.3 110.9C 10.8 113.2 8.9 115.2 9.2 115.5C 10.8 117.1 27.8 102.5 38.2 90.4C 40.1 88.2 42.5 86 43.5 85.6C 45.1 85 44.9 84.6 41.9 82C 40 80.4 38.2 79.1 37.8 79C 37.4 79 35.7 81.6 34 84.9z"/>
<path style="stroke:none; fill:#000000" d="M 57.7 80.7C 57.3 81 59.1 83.3 61.6 85.9C 65.8 90.3 75.4 103.8 79.3 111C 81.6 115.2 83.1 113.9 83.7 107.3C 84.1 103.3 83.7 101.9 81.7 99.2C 77.7 93.9 58.9 79.4 57.7 80.7z"/>
</g>
</g>
</svg>