<?xml version="1.0" encoding="UTF-8" standalone="yes"?>
<!-- Created with sK1/UniConvertor (http://sk1project.org/) -->
<svg xmlns="http://www.w3.org/2000/svg" xmlns:xlink="http://www.w3.org/1999/xlink"
  width="100pt" height="128pt" viewBox="0 0 100 128"
  fill-rule="evenodd">
<g>
<g>
<path style="stroke:none; fill:#000000" d="M 55.5 31C 54 32.6 52.4 33 46.5 33C 41.8 33 38.7 32.5 37.4 31.5C 36.4 30.7 35.2 30 34.8 30C 34.3 30 34 49.6 34 73.5L 34 117L 36.5 115.8C 39 114.7 39 114.5 39 102.3L 39 90L 49.2 90L 59.3 90L 57 87.5C 54.3 84.6 52.8 84.4 51 86.5C 50.2 87.5 47.9 88 44.4 88L 39 88L 39 80L 39 72L 48.2 72L 57.4 72L 54.5 69L 51.6 66L 49.5 68C 48.1 69.3 46 70 43.2 70L 39 70L 39 62.5L 39 55L 46.5 55C 53.4 55 54 55.2 54 57C 54 58.9 54.2 59 56.7 57.6C 59.4 56.2 59.4 56.2 59.1 46.4C 58.9 37.7 59 36.5 60.8 35.1C 62.8 33.5 62.7 33.5 60 31.3C 57.3 29.1 57.2 29.1 55.5 31zM 54 44L 54 53L 46.5 53L 39 53L 39 44L 39 35L 46.5 35L 54 35L 54 44z"/>
<path style="stroke:none; fill:#000000" d="M 84.5 31C 82.9 32.7 81.5 33 73.7 33C 66.1 33 64.9 33.2 65.9 34.4C 66.8 35.5 68.9 35.7 75 35.3L 83 34.7L 83 43.9L 83 53L 73.3 53C 65.3 53.1 63.9 53.3 65.5 54.2C 66.7 54.9 70.6 55.3 75.3 55.1C 82.5 54.8 83 55 83 56.9C 83 59.3 83.1 59.4 86.2 58C 88.4 57 88.5 56.5 88.2 46.6C 87.9 37 88 36.3 90 35.4C 92.1 34.5 92.1 34.4 89.2 31.7C 86.3 29 86.3 29 84.5 31z"/>
<path style="stroke:none; fill:#000000" d="M 84 68.5C 83.1 69.6 79.8 70 70.7 70.3C 63.4 70.5 59.3 70.9 60.6 71.4C 62.1 71.9 62.9 73.7 63.9 78.3C 64.6 81.7 66.4 87.8 68 91.8L 70.8 99L 65.6 103.6C 62.8 106.1 57.1 109.7 53 111.7C 44.2 116 44.5 115.8 45.2 116.5C 45.9 117.3 58.4 112.5 62.9 109.8C 64.9 108.6 68.1 106.4 70 104.9L 73.6 102.2L 76.8 106.1C 78.6 108.2 82 111.3 84.4 113C 88.1 115.4 89 115.7 89.9 114.6C 90.6 113.8 92.3 112.9 93.8 112.5C 96.3 111.9 96.2 111.7 90.4 109C 87 107.5 82.5 104.6 80.2 102.6L 76.1 98.9L 80 91.7C 82.1 87.7 84.6 82.2 85.5 79.5C 86.5 76.7 88.2 73.7 89.3 72.7C 91.2 71 91.2 71 88.9 69C 86 66.6 85.6 66.6 84 68.5zM 80.4 79.2C 76.8 89.2 74.1 94.2 72.8 93.4C 71.5 92.5 68.1 85.1 65.9 77.7L 64.2 72L 73.6 72L 83 72L 80.4 79.2z"/>
</g>
</g>
</svg>