<?xml version="1.0" encoding="UTF-8" standalone="yes"?>
<!-- Created with sK1/UniConvertor (http://sk1project.org/) -->
<svg xmlns="http://www.w3.org/2000/svg" xmlns:xlink="http://www.w3.org/1999/xlink"
  width="98pt" height="128pt" viewBox="0 0 98 128"
  fill-rule="evenodd">
<g>
<g>
<path style="stroke:none; fill:#000000" d="M 57.1 30.3C 56.5 33.2 54.2 39.1 52.1 43.5C 49.9 47.9 48.4 51.7 48.6 52C 48.9 52.2 50.9 50.3 53.1 47.7L 57.2 43L 73.9 43L 90.7 43L 87.6 39.6L 84.5 36.2L 81.9 38.6C 79.6 40.8 78.6 41 68.6 41L 57.8 41L 60.6 36.2C 62.1 33.6 63.9 31 64.7 30.5C 65.7 29.7 65.1 29 62.1 27.3L 58.3 25.1L 57.1 30.3z"/>
<path style="stroke:none; fill:#000000" d="M 32 45L 32 63.1L 34.6 61.7L 37.2 60.3L 37.1 46.7C 36.9 34.8 37.1 33 38.6 32.2C 40.1 31.4 39.7 30.9 36.2 29.1L 32 27L 32 45z"/>
<path style="stroke:none; fill:#000000" d="M 15 47C 15 55.2 15.3 62 15.8 62C 16.2 62 17.3 61.3 18.3 60.6C 19.7 59.5 20 57.6 20 49C 20 40.8 20.3 38.3 21.6 36.8C 23.2 35.1 23.1 34.9 19.7 33.5C 17.7 32.7 15.8 32 15.5 32C 15.2 32 15 38.7 15 47z"/>
<path style="stroke:none; fill:#000000" d="M 65 45.5C 65 45.8 66.5 48 68.4 50.4C 70.3 52.9 72.4 56.6 73 58.7C 74.7 64 75.8 64.9 77.6 62.6C 80 59.3 79.3 55.7 75.8 52.4C 69.7 46.7 65 43.7 65 45.5z"/>
</g>
</g>
</svg>