<?xml version="1.0" encoding="UTF-8" standalone="yes"?>
<!-- Created with sK1/UniConvertor (http://sk1project.org/) -->
<svg xmlns="http://www.w3.org/2000/svg" xmlns:xlink="http://www.w3.org/1999/xlink"
  width="99pt" height="128pt" viewBox="0 0 99 128"
  fill-rule="evenodd">
<g>
<g>
<path style="stroke:none; fill:#000000" d="M 43.9 29.8C 45.1 31.5 46.7 34.5 47.5 36.4L 49 40L 28.3 40C 12.3 40 7.9 40.3 8.8 41.2C 9.6 42 14.5 42.3 25.2 42.2L 40.5 42L 36 46.1C 30.8 50.8 22.3 56 19.7 56C 18.3 56 18.1 56.4 18.9 57.7C 21.7 62.8 22.2 63 28.5 62C 31.8 61.5 43 60.3 53.5 59.4L 72.5 57.8L 75.6 61.4C 79 65.3 80.5 65.8 81.4 63.4C 83.6 57.7 80.8 54.4 69.7 50.1C 61.7 46.9 56.7 45.9 60.4 48.3C 67.9 53.1 70.2 55.2 68.9 56.1C 68.1 56.6 57.8 56.9 46 56.9L 24.5 56.9L 36.2 51C 47.5 45.4 47.8 45.1 45.7 43.6C 43.7 42.2 45.6 42.1 67.2 42.1L 90.9 42L 87.5 38.3L 84.1 34.6L 81.2 37.3C 78.4 40 78.2 40 64.7 40L 51 40L 52.5 37.6C 55.1 33.6 52.1 30 44.1 27.5L 41.7 26.8L 43.9 29.8z"/>
</g>
</g>
</svg>