<?xml version="1.0" encoding="UTF-8" standalone="yes"?>
<!-- Created with sK1/UniConvertor (http://sk1project.org/) -->
<svg xmlns="http://www.w3.org/2000/svg" xmlns:xlink="http://www.w3.org/1999/xlink"
  width="99pt" height="129pt" viewBox="0 0 99 129"
  fill-rule="evenodd">
<g>
<g>
<path style="stroke:none; fill:#000000" d="M 49 27.9C 49 28.5 49.5 29.2 50 29.5C 51.4 30.4 55 37.6 55 39.5C 55 40.8 53 41 41.4 41C 29.3 41 27.3 40.8 24.4 38.9L 21 36.8L 21 51.7L 21 66.5L 12.5 71.9L 4 77.4L 6.1 79.6L 8.2 81.8L 14.7 75.2L 21.2 68.5L 20.6 77C 19.7 91.4 14.8 105.6 8 113.3C 3 119 6.1 117.7 11.7 111.7C 17.5 105.6 19.8 101.4 23 91.5C 25 85.4 25.4 81.7 25.8 63.7L 26.2 43L 59.6 43L 93 43L 89.8 39.5L 86.6 36L 84 38.5C 81.5 40.9 80.8 41 69.7 41C 58.1 41 57.9 41 59 38.9C 60.9 35.5 59.4 32.4 54.6 29.6C 49.7 26.8 49 26.5 49 27.9z"/>
<path style="stroke:none; fill:#000000" d="M 7.8 49.2C 8.9 51 10.3 54.4 11 56.8C 12 60.6 12.3 60.9 14 60C 17.5 58.1 16.6 53.6 11.8 49.6C 6.6 45.1 5.2 45 7.8 49.2z"/>
</g>
</g>
</svg>