<?xml version="1.0" encoding="UTF-8" standalone="yes"?>
<!-- Created with sK1/UniConvertor (http://sk1project.org/) -->
<svg xmlns="http://www.w3.org/2000/svg" xmlns:xlink="http://www.w3.org/1999/xlink"
  width="98pt" height="128pt" viewBox="0 0 98 128"
  fill-rule="evenodd">
<g>
<g>
<path style="stroke:none; fill:#000000" d="M 34 31.7C 25.7 35.8 19.9 36.8 16.5 34.6L 14 33L 14 62.4L 14 91.7L 10.9 92.4C 9.2 92.7 6.7 93 5.4 93L 3.1 93L 5.1 96.5C 7.1 99.9 7.2 99.9 10 98.5C 11.6 97.7 13.1 97 13.5 97C 13.8 97 14 101.5 14 107L 14 116.9L 16.8 115.3C 19.6 113.7 19.6 113.7 19.2 104.4L 18.8 95.2L 33.4 90.5C 41.5 88 47.8 85.5 47.6 85.1C 47.3 84.6 41.5 85.5 34.8 87.1C 28 88.6 21.7 89.9 20.8 90C 19.2 90 19 88.9 19 81.5L 19 73L 31 73L 43 73L 39.8 70.1C 36.5 67.2 36.5 67.2 34.4 69.1C 32.8 70.6 30.9 71 25.7 71L 19 71L 19 63L 19 55L 31.2 55L 43.5 55L 40.3 51.8L 37.1 48.6L 34.7 50.8C 32.8 52.6 31.2 53 25.6 53L 18.9 53L 19.2 45.8L 19.5 38.6L 29 36.9C 34.2 35.9 39.9 35.1 41.7 35.1C 46 35 46.5 33.8 43.2 30.9L 40.5 28.5L 34 31.7z"/>
</g>
</g>
</svg>