<?xml version="1.0" encoding="UTF-8" standalone="yes"?>
<!-- Created with sK1/UniConvertor (http://sk1project.org/) -->
<svg xmlns="http://www.w3.org/2000/svg" xmlns:xlink="http://www.w3.org/1999/xlink"
  width="98pt" height="128pt" viewBox="0 0 98 128"
  fill-rule="evenodd">
<g>
<g>
<path style="stroke:none; fill:#000000" d="M 76.5 31C 75 32.6 73.4 33 67.6 33C 63.3 32.9 59.5 32.4 58 31.5C 54 29.2 53.7 29.6 54.3 35.9C 55.2 43.8 53.4 57.3 50.9 62.1C 49.9 64.2 47.6 67.5 45.9 69.5C 40.7 75.4 43.4 74.6 49.8 68.4C 57 61.3 59 55.9 59 43.3L 59 35L 67.5 35L 76 35L 76 48C 76 64.3 76.5 65 86.9 65C 94.2 65 95.8 64.2 94.1 61.3C 93.3 59.9 91.8 59.5 87.3 59.5L 81.5 59.5L 81.2 47.6C 81 37.5 81.2 35.6 82.6 34.5C 84.1 33.5 84 33.1 81.3 31.2C 78.3 29.1 78.3 29.1 76.5 31z"/>
<path style="stroke:none; fill:#000000" d="M 81.5 75C 79.9 76.8 78.5 77 69 77C 61.2 77 57.9 76.6 56.4 75.5C 55.4 74.7 54.2 74 53.8 74C 53.3 74 53 83.5 53 95.1L 53 116.2L 55.2 114.8C 56.5 113.9 57.6 112.1 57.8 110.6L 58.1 108L 69.6 108L 81 108L 81 111C 81 113.8 81.1 113.9 83.5 112.8L 86 111.7L 86 96.2C 86 83.4 86.3 80.5 87.5 79.6C 88.9 78.6 88.7 78.1 86.2 75.7C 83.3 73 83.3 73 81.5 75zM 81 92.5L 81 106L 69.5 106L 58 106L 58 92.5L 58 79L 69.5 79L 81 79L 81 92.5z"/>
</g>
</g>
</svg>