<?xml version="1.0" encoding="UTF-8" standalone="yes"?>
<!-- Created with sK1/UniConvertor (http://sk1project.org/) -->
<svg xmlns="http://www.w3.org/2000/svg" xmlns:xlink="http://www.w3.org/1999/xlink"
  width="98pt" height="128pt" viewBox="0 0 98 128"
  fill-rule="evenodd">
<g>
<g>
<path style="stroke:none; fill:#000000" d="M 55 26.8C 55 27.3 55.9 28.9 57 30.3C 58.2 31.7 60 35 61.1 37.5C 63.2 42.3 63.9 42.7 65.8 40.8C 68.1 38.5 67.2 34.3 63.9 31.6C 60 28.3 55 25.6 55 26.8z"/>
<path style="stroke:none; fill:#000000" d="M 84 42.5L 81.7 45L 58.1 45C 39.2 45 34.9 45.2 36 46.2C 37.2 47.2 44.3 47.4 65.9 47.2L 94.3 46.9L 90.9 43.4C 89.1 41.5 87.3 40 87 40C 86.6 40 85.3 41.1 84 42.5z"/>
<path style="stroke:none; fill:#000000" d="M 70 51.2C 70 53.3 64.7 70 64.1 70C 63.8 69.9 61 66.3 58 62C 55 57.6 52.2 54 51.8 54C 51.4 54 53.6 58.7 56.6 64.5L 62.1 74.9L 58.2 83.4C 56 88 52.8 93.9 51.1 96.4C 49.3 98.9 48.4 101 48.9 101C 50.3 101 57.1 92.4 61.2 85.4C 63 82.4 64.8 80 65.1 80C 66 80 68.5 86.5 70 92.8C 71.5 99.3 72.7 100.1 74.5 95.7C 76.3 91.4 75.3 87.6 70.7 79.9L 67.4 74.4L 71.1 66C 73.2 61.4 75.6 57 76.5 56.4C 77.9 55.3 77.8 55 75.3 53.3C 70.7 50.1 70 49.8 70 51.2z"/>
<path style="stroke:none; fill:#000000" d="M 41.9 82C 42.2 102.1 42 105.3 40.6 106.9C 39.1 108.5 39.2 108.8 41.5 111C 43.8 113.2 44.1 113.2 45.8 111.7C 47.4 110.3 50.2 110 64.3 110L 81 110L 81 112.5C 81 115.1 81.7 115.4 84.4 114.4C 85.8 113.9 86 110.7 86 89.7C 86 70.3 86.3 65.4 87.4 64.1C 88.7 62.7 88.4 62.3 84.9 60.8L 81 59.1L 81 83.6L 81 108L 64 108L 47 108L 47 86.8C 47 69.1 47.3 65.4 48.6 63.9C 50 62.4 49.9 62.1 47.3 61.2C 45.8 60.7 43.8 59.9 43 59.6C 41.7 59.1 41.5 61.8 41.9 82z"/>
</g>
</g>
</svg>