<?xml version="1.0" encoding="UTF-8" standalone="yes"?>
<!-- Created with sK1/UniConvertor (http://sk1project.org/) -->
<svg xmlns="http://www.w3.org/2000/svg" xmlns:xlink="http://www.w3.org/1999/xlink"
  width="98pt" height="128pt" viewBox="0 0 98 128"
  fill-rule="evenodd">
<g>
<g>
<path style="stroke:none; fill:#000000" d="M 16 26.8C 16 27.2 17.1 28.7 18.4 29.9C 19.7 31.1 21.6 33.7 22.6 35.6C 23.6 37.4 24.7 39 25.1 39C 25.5 39 26.3 37.6 27 36C 28 33.6 28 32.7 26.9 31.4C 24.7 28.7 16 25 16 26.8z"/>
<path style="stroke:none; fill:#000000" d="M 74 29.5C 73 30.7 69.4 31 53.7 31C 38.8 31 34.9 31.3 35.8 32.2C 36.6 33 39.9 33.3 45.6 33.1L 54.3 32.8L 53.5 37.6C 52.4 45.2 49.3 54.1 46.1 59.2C 43.2 63.8 33.1 72.2 29 73.5C 27.9 73.9 27 74.5 27 75.1C 27 76.4 36.5 72.4 41.4 69.1C 47.1 65.1 50.5 61.3 53.3 55.5C 56.1 50 59 39.7 59 35.6C 59 33 59.1 33 66.4 33L 73.8 33L 73.3 37.2C 72.1 48 69.9 60.4 68.9 62.2C 67.9 64.1 67.2 64.2 61.4 63.6C 57.9 63.2 55 63.2 55 63.4C 55 63.7 56.8 64.9 59 66.1C 61.2 67.4 63.3 69.4 63.6 70.6C 64.1 72.6 64.5 72.7 67.1 71.8C 72.3 70 74.1 66.4 76.4 53C 76.7 51.6 76.9 49.8 76.9 49.1C 77 46.8 83.5 53.6 85.5 58.1C 86.5 60.2 87.7 62 88.1 62C 89.3 62 91 58.5 91 56.2C 91 53.7 85.3 48.6 80.7 47L 77.3 45.7L 78.2 40.1C 78.7 37 79.7 34 80.6 33.4C 81.9 32.4 81.7 31.9 79.4 30.1C 76.2 27.6 75.6 27.5 74 29.5z"/>
<path style="stroke:none; fill:#000000" d="M 9.7 42.9C 11.8 45.5 14 48.6 14.7 49.6C 15.7 51.3 16 51.3 17 50C 17.5 49.2 17.9 47.1 17.8 45.5C 17.5 43 16.7 42.1 13 40.3C 6.2 37 5.6 37.5 9.7 42.9z"/>
<path style="stroke:none; fill:#000000" d="M 27 47.6C 24 52.8 21 57.6 20.3 58.1C 19.7 58.7 17 59.5 14.3 59.9L 9.5 60.7L 12.7 61.9C 16.8 63.5 17.4 65.3 15.8 71.3C 14.7 75.8 14.7 76.3 16.5 77.6C 20.3 80.4 21.5 79 22 71C 22.6 63.5 24.5 57.9 31.1 44.8C 34.2 38.7 34.4 38 33.3 38C 32.8 38 30 42.3 27 47.6z"/>
<path style="stroke:none; fill:#000000" d="M 40.1 45.2C 39.5 46.9 37.9 49.8 36.5 51.6C 33.2 55.9 33.3 57 37 57C 40.6 57 42 54.8 42.7 47.4C 43.4 41.3 41.9 40.1 40.1 45.2z"/>
</g>
</g>
</svg>