<?xml version="1.0" encoding="UTF-8" standalone="yes"?>
<!-- Created with sK1/UniConvertor (http://sk1project.org/) -->
<svg xmlns="http://www.w3.org/2000/svg" xmlns:xlink="http://www.w3.org/1999/xlink"
  width="99pt" height="129pt" viewBox="0 0 99 129"
  fill-rule="evenodd">
<g>
<g>
<path style="stroke:none; fill:#000000" d="M 15 46.5C 15 56.5 15.4 64 15.9 64C 18.6 64 20 62.5 20 59.9L 20 57L 28.5 57C 36.5 57 37 57.1 37 59.1C 37 60.6 37.4 61 38.6 60.6C 39.5 60.3 40.6 60 41.2 60C 41.8 60 41.9 55.6 41.4 47.6C 40.8 36.2 40.9 35.2 42.6 34.2C 44.4 33.2 44.4 33.1 42.6 31.1C 40.3 28.6 38.7 28.4 37 30.5C 35.3 32.6 21.3 32.5 18.6 30.5C 17.5 29.7 16.3 29 15.8 29C 15.4 29 15 36.9 15 46.5zM 37 44.5L 37 55L 28.5 55L 20 55L 20 44.5L 20 34L 28.5 34L 37 34L 37 44.5z"/>
<path style="stroke:none; fill:#000000" d="M 55 45.9C 55 62.7 55 62.8 57.1 62.3C 58.3 61.9 59.5 60.9 59.7 59.8C 60.2 58.2 61.3 58 69.1 58C 76.6 58 78 58.3 78 59.6C 78 60.7 78.5 61 79.6 60.6C 80.5 60.3 81.6 60 82.1 60C 82.6 60 83 54.4 83 47.5C 83 37.4 83.3 34.8 84.5 34.4C 85.6 33.9 85.2 33.2 82.9 31.3C 80.1 28.9 79.8 28.9 78.1 30.4C 75.7 32.6 61.3 32.7 58.4 30.5C 57.4 29.7 56.2 29 55.8 29C 55.3 29 55 36.6 55 45.9zM 78 45L 78 56L 69 56L 60 56L 60 45L 60 34L 69 34L 78 34L 78 45z"/>
</g>
</g>
</svg>