<?xml version="1.0" encoding="UTF-8" standalone="yes"?>
<!-- Created with sK1/UniConvertor (http://sk1project.org/) -->
<svg xmlns="http://www.w3.org/2000/svg" xmlns:xlink="http://www.w3.org/1999/xlink"
  width="98pt" height="128pt" viewBox="0 0 98 128"
  fill-rule="evenodd">
<g>
<g>
<path style="stroke:none; fill:#000000" d="M 72 28.7C 66.9 30.9 53.3 33.6 38 35.5C 13.1 38.5 12 38.7 23.6 38.9C 32.3 39 80.9 35.4 81.7 34.6C 82.1 34.2 76.6 27.1 76 27.1C 75.7 27.1 73.9 27.8 72 28.7z"/>
<path style="stroke:none; fill:#000000" d="M 69.9 41.7C 69.4 43.3 67.5 47.9 65.7 52L 62.5 59.5L 55.6 59.8L 48.8 60.1L 50.4 57.8C 53.1 53.9 52.4 51.1 47.1 45.9C 44.5 43.2 41.8 41 41.2 41C 40.6 41 41.1 43.3 42.5 46.2C 43.8 49.1 45.2 53.4 45.6 55.7L 46.3 60L 37 60C 28 60 27.8 59.9 29.3 58.2C 31.9 55.3 31.4 51.7 27.8 48.3C 24.7 45.4 20.9 43 19.5 43C 19.1 43 19.7 44.6 20.9 46.5C 22 48.4 23.6 52.2 24.4 55L 25.9 60L 20.9 60C 16.3 60 16 59.8 16 57.4C 16 53.9 14.4 55.2 13.6 59.3C 13.3 61.1 11.6 64.8 10 67.4C 6.6 72.7 6.8 74 10.9 74C 14.6 74 16.1 72 16.8 66.5L 17.3 62L 49.6 62C 71.6 62 82 62.3 82 63C 82 63.6 81.4 65.3 80.6 66.8C 79.9 68.3 78.9 70.6 78.5 72C 77.9 74.1 78.5 73.8 82.6 69.8C 85.3 67.2 88.8 64.6 90.4 64L 93.4 62.9L 89.7 59.3L 86.1 55.6L 83.7 57.8C 81.7 59.7 80.2 60 73.2 60C 68.7 60 65 59.7 65 59.4C 65 57.9 75.5 45.8 77.9 44.5C 79.4 43.7 79.9 43.1 79 43C 78.2 43 76.4 42.1 75 41C 71.7 38.4 71.1 38.5 69.9 41.7z"/>
</g>
</g>
</svg>