<?xml version="1.0" encoding="UTF-8" standalone="yes"?>
<!-- Created with sK1/UniConvertor (http://sk1project.org/) -->
<svg xmlns="http://www.w3.org/2000/svg" xmlns:xlink="http://www.w3.org/1999/xlink"
  width="98pt" height="128pt" viewBox="0 0 98 128"
  fill-rule="evenodd">
<g>
<g>
<path style="stroke:none; fill:#000000" d="M 33 35.6L 33 44L 22.4 44C 13.5 44 11.9 44.2 12.9 45.4C 13.7 46.4 16.2 46.6 23.5 46.2L 33 45.7L 33 54.9L 33 64.1L 18.5 63.8C 5.6 63.5 4.2 63.7 5.8 65C 7.3 66.3 13.4 66.5 50.7 66.2L 93.8 65.9L 89.7 62L 85.5 58.1L 82.5 61.1C 79.7 63.8 78.8 64 72.2 64L 65 64L 65 55L 65 46L 76.5 46L 88 46L 84 42.3L 79.9 38.7L 77.2 41.3C 75 43.4 73.4 44 69.7 44L 65 44L 65 38.6C 65 33.9 65.3 33 67.2 32.4C 69.6 31.7 69 31.2 62.4 28.4L 58.9 26.9L 59.6 35.5L 60.3 44L 49.1 44L 38 44L 38 38.6C 38 34.7 38.4 33.1 39.5 32.6C 41.9 31.7 41.2 30.6 37 28.8L 33 27.1L 33 35.6zM 60 55L 60 64L 49 64L 38 64L 38 55L 38 46L 49 46L 60 46L 60 55z"/>
</g>
</g>
</svg>