<?xml version="1.0" encoding="UTF-8" standalone="yes"?>
<!-- Created with sK1/UniConvertor (http://sk1project.org/) -->
<svg xmlns="http://www.w3.org/2000/svg" xmlns:xlink="http://www.w3.org/1999/xlink"
  width="98pt" height="128pt" viewBox="0 0 98 128"
  fill-rule="evenodd">
<g>
<g>
<path style="stroke:none; fill:#000000" d="M 72.5 33C 70.8 34.8 69.5 35 55.6 35C 43.6 35 40.9 35.3 41.8 36.2C 42.8 37.2 46.7 37.4 56.5 37.1C 64.6 36.9 70 37.2 70 37.7C 70 39.6 60 52.9 54.8 58C 51.9 60.9 46 65.5 41.7 68.4C 37.5 71.2 34.4 73.6 34.9 73.8C 36.8 74.4 51.6 66 58.1 60.6L 64.7 55.1L 71.1 59.5C 74.6 61.8 79.7 66.1 82.4 68.9C 86.2 72.8 87.7 73.7 88.7 72.8C 90.2 71.6 90.4 68.6 89 66C 87.8 63.8 81.8 60.3 72.8 56.5C 69 55 66 53.5 66 53.2C 66 52.1 76.2 39.1 78.1 37.9C 80.1 36.5 80.1 36.5 77.2 33.7C 74.4 31 74.3 31 72.5 33z"/>
<path style="stroke:none; fill:#000000" d="M 78.5 78C 76.8 79.9 75.4 80 59.7 80C 45.2 80 42.9 80.2 43.9 81.4C 44.8 82.5 46.8 82.7 52.6 82.3L 60 81.7L 60 95.4L 60 109L 46.3 109C 35.2 109 32.9 109.2 34 110.3C 35.2 111.2 42.2 111.4 64.8 111L 94.1 110.5L 91.1 107.6L 88 104.6L 85.7 106.8C 83.7 108.7 82.2 109 74.2 109L 65 109L 65 95.5L 65 82L 76.2 82L 87.4 82L 84.5 79C 81.1 75.4 80.8 75.4 78.5 78z"/>
</g>
</g>
</svg>